<svg width="306" height="398" viewBox="0 0 306 398" fill="none" xmlns="http://www.w3.org/2000/svg">
<g clip-path="url(#clip0_202_705)">
<path d="M190.959 346V337.273H194.07C194.746 337.273 195.307 337.389 195.753 337.622C196.202 337.855 196.537 338.178 196.759 338.589C196.98 338.999 197.091 339.472 197.091 340.009C197.091 340.543 196.979 341.013 196.754 341.419C196.533 341.822 196.197 342.136 195.749 342.361C195.303 342.585 194.741 342.697 194.065 342.697H191.709V341.564H193.946C194.372 341.564 194.719 341.503 194.986 341.381C195.256 341.259 195.453 341.081 195.578 340.848C195.703 340.615 195.766 340.335 195.766 340.009C195.766 339.679 195.702 339.393 195.574 339.152C195.449 338.911 195.251 338.726 194.982 338.598C194.714 338.467 194.364 338.402 193.929 338.402H192.276V346H190.959ZM195.267 342.062L197.423 346H195.923L193.81 342.062H195.267ZM201.33 346.132C200.685 346.132 200.13 345.994 199.664 345.719C199.201 345.44 198.843 345.05 198.59 344.547C198.34 344.041 198.215 343.449 198.215 342.77C198.215 342.099 198.34 341.509 198.59 340.997C198.843 340.486 199.195 340.087 199.647 339.8C200.101 339.513 200.632 339.369 201.24 339.369C201.61 339.369 201.968 339.43 202.314 339.553C202.661 339.675 202.972 339.866 203.248 340.128C203.523 340.389 203.74 340.729 203.9 341.146C204.059 341.561 204.138 342.065 204.138 342.659V343.111H198.935V342.156H202.89C202.89 341.821 202.821 341.524 202.685 341.266C202.549 341.004 202.357 340.798 202.11 340.648C201.865 340.497 201.578 340.422 201.249 340.422C200.891 340.422 200.578 340.51 200.311 340.686C200.047 340.859 199.843 341.087 199.698 341.368C199.556 341.646 199.485 341.949 199.485 342.276V343.021C199.485 343.459 199.561 343.831 199.715 344.138C199.871 344.445 200.088 344.679 200.367 344.841C200.645 345 200.971 345.08 201.343 345.08C201.584 345.08 201.804 345.045 202.003 344.977C202.202 344.906 202.374 344.801 202.519 344.662C202.664 344.523 202.775 344.351 202.851 344.146L204.057 344.364C203.961 344.719 203.787 345.03 203.537 345.297C203.29 345.561 202.979 345.767 202.604 345.915C202.232 346.06 201.807 346.132 201.33 346.132ZM209.971 348.455V344.982H209.894C209.817 345.121 209.707 345.28 209.562 345.459C209.42 345.638 209.224 345.794 208.974 345.928C208.724 346.061 208.4 346.128 208.002 346.128C207.474 346.128 207.002 345.993 206.587 345.723C206.175 345.45 205.852 345.062 205.616 344.56C205.383 344.054 205.266 343.447 205.266 342.74C205.266 342.033 205.384 341.428 205.62 340.925C205.859 340.422 206.185 340.037 206.6 339.77C207.015 339.503 207.485 339.369 208.011 339.369C208.417 339.369 208.744 339.438 208.991 339.574C209.241 339.707 209.434 339.864 209.57 340.043C209.71 340.222 209.817 340.379 209.894 340.516H210.001V339.455H211.245V348.455H209.971ZM208.283 345.041C208.65 345.041 208.96 344.945 209.212 344.751C209.468 344.555 209.661 344.284 209.792 343.938C209.925 343.591 209.992 343.187 209.992 342.727C209.992 342.273 209.927 341.875 209.796 341.534C209.665 341.193 209.474 340.928 209.221 340.737C208.968 340.547 208.656 340.452 208.283 340.452C207.9 340.452 207.58 340.551 207.325 340.75C207.069 340.949 206.876 341.22 206.745 341.564C206.617 341.908 206.553 342.295 206.553 342.727C206.553 343.165 206.619 343.558 206.749 343.908C206.88 344.257 207.073 344.534 207.329 344.739C207.587 344.94 207.906 345.041 208.283 345.041ZM217.104 343.286V339.455H218.383V346H217.13V344.866H217.062C216.911 345.216 216.67 345.507 216.337 345.74C216.008 345.97 215.597 346.085 215.106 346.085C214.685 346.085 214.313 345.993 213.989 345.808C213.668 345.621 213.415 345.344 213.231 344.977C213.049 344.611 212.958 344.158 212.958 343.618V339.455H214.232V343.464C214.232 343.911 214.356 344.266 214.603 344.53C214.85 344.794 215.171 344.926 215.566 344.926C215.805 344.926 216.042 344.866 216.278 344.747C216.516 344.628 216.714 344.447 216.87 344.206C217.029 343.964 217.107 343.658 217.104 343.286ZM220.095 346V339.455H221.369V346H220.095ZM220.738 338.445C220.517 338.445 220.326 338.371 220.167 338.223C220.011 338.072 219.933 337.893 219.933 337.686C219.933 337.476 220.011 337.297 220.167 337.149C220.326 336.999 220.517 336.923 220.738 336.923C220.96 336.923 221.149 336.999 221.305 337.149C221.464 337.297 221.544 337.476 221.544 337.686C221.544 337.893 221.464 338.072 221.305 338.223C221.149 338.371 220.96 338.445 220.738 338.445ZM227.988 341.053L226.833 341.257C226.785 341.109 226.708 340.969 226.603 340.835C226.501 340.702 226.362 340.592 226.185 340.507C226.009 340.422 225.789 340.379 225.525 340.379C225.164 340.379 224.863 340.46 224.621 340.622C224.38 340.781 224.259 340.987 224.259 341.24C224.259 341.459 224.34 341.635 224.502 341.768C224.664 341.902 224.925 342.011 225.286 342.097L226.326 342.335C226.928 342.474 227.377 342.689 227.673 342.979C227.968 343.268 228.116 343.645 228.116 344.108C228.116 344.5 228.002 344.849 227.775 345.156C227.55 345.46 227.237 345.699 226.833 345.872C226.433 346.045 225.968 346.132 225.44 346.132C224.707 346.132 224.109 345.976 223.646 345.663C223.183 345.348 222.898 344.901 222.793 344.321L224.025 344.134C224.102 344.455 224.259 344.697 224.498 344.862C224.737 345.024 225.048 345.105 225.431 345.105C225.849 345.105 226.183 345.018 226.433 344.845C226.683 344.669 226.808 344.455 226.808 344.202C226.808 343.997 226.731 343.825 226.577 343.686C226.427 343.547 226.195 343.442 225.883 343.371L224.775 343.128C224.164 342.989 223.712 342.767 223.42 342.463C223.13 342.159 222.985 341.774 222.985 341.308C222.985 340.922 223.093 340.584 223.309 340.294C223.525 340.004 223.823 339.778 224.204 339.616C224.585 339.452 225.021 339.369 225.512 339.369C226.219 339.369 226.776 339.523 227.183 339.83C227.589 340.134 227.857 340.541 227.988 341.053ZM229.517 346V339.455H230.791V346H229.517ZM230.16 338.445C229.939 338.445 229.748 338.371 229.589 338.223C229.433 338.072 229.355 337.893 229.355 337.686C229.355 337.476 229.433 337.297 229.589 337.149C229.748 336.999 229.939 336.923 230.16 336.923C230.382 336.923 230.571 336.999 230.727 337.149C230.886 337.297 230.966 337.476 230.966 337.686C230.966 337.893 230.886 338.072 230.727 338.223C230.571 338.371 230.382 338.445 230.16 338.445ZM235.56 339.455V340.477H231.985V339.455H235.56ZM232.944 337.886H234.218V344.078C234.218 344.325 234.255 344.511 234.329 344.636C234.403 344.759 234.498 344.842 234.614 344.888C234.734 344.93 234.863 344.952 235.002 344.952C235.104 344.952 235.194 344.945 235.271 344.93C235.347 344.916 235.407 344.905 235.45 344.896L235.68 345.949C235.606 345.977 235.501 346.006 235.364 346.034C235.228 346.065 235.058 346.082 234.853 346.085C234.518 346.091 234.205 346.031 233.915 345.906C233.626 345.781 233.391 345.588 233.212 345.327C233.033 345.065 232.944 344.737 232.944 344.342V337.886ZM239.721 346.132C239.076 346.132 238.52 345.994 238.054 345.719C237.591 345.44 237.233 345.05 236.98 344.547C236.73 344.041 236.605 343.449 236.605 342.77C236.605 342.099 236.73 341.509 236.98 340.997C237.233 340.486 237.586 340.087 238.037 339.8C238.492 339.513 239.023 339.369 239.631 339.369C240 339.369 240.358 339.43 240.705 339.553C241.051 339.675 241.363 339.866 241.638 340.128C241.914 340.389 242.131 340.729 242.29 341.146C242.449 341.561 242.529 342.065 242.529 342.659V343.111H237.326V342.156H241.28C241.28 341.821 241.212 341.524 241.076 341.266C240.939 341.004 240.748 340.798 240.5 340.648C240.256 340.497 239.969 340.422 239.64 340.422C239.282 340.422 238.969 340.51 238.702 340.686C238.438 340.859 238.233 341.087 238.088 341.368C237.946 341.646 237.875 341.949 237.875 342.276V343.021C237.875 343.459 237.952 343.831 238.105 344.138C238.262 344.445 238.479 344.679 238.757 344.841C239.036 345 239.361 345.08 239.733 345.08C239.975 345.08 240.195 345.045 240.394 344.977C240.593 344.906 240.765 344.801 240.909 344.662C241.054 344.523 241.165 344.351 241.242 344.146L242.448 344.364C242.351 344.719 242.178 345.03 241.928 345.297C241.681 345.561 241.37 345.767 240.995 345.915C240.623 346.06 240.198 346.132 239.721 346.132Z" fill="#4B4B4B"/>
<rect width="306" height="398" rx="8" fill="white"/>
<path d="M139.56 171.141V169.818H147.44V171.141H144.263V180H142.732V171.141H139.56ZM151.171 180.154C150.455 180.154 149.83 179.99 149.297 179.662C148.763 179.334 148.349 178.875 148.054 178.285C147.759 177.695 147.611 177.005 147.611 176.217C147.611 175.424 147.759 174.732 148.054 174.138C148.349 173.545 148.763 173.085 149.297 172.756C149.83 172.428 150.455 172.264 151.171 172.264C151.887 172.264 152.512 172.428 153.045 172.756C153.579 173.085 153.993 173.545 154.288 174.138C154.583 174.732 154.731 175.424 154.731 176.217C154.731 177.005 154.583 177.695 154.288 178.285C153.993 178.875 153.579 179.334 153.045 179.662C152.512 179.99 151.887 180.154 151.171 180.154ZM151.176 178.906C151.64 178.906 152.024 178.784 152.329 178.538C152.634 178.293 152.86 177.967 153.006 177.559C153.155 177.151 153.229 176.702 153.229 176.212C153.229 175.724 153.155 175.277 153.006 174.869C152.86 174.458 152.634 174.129 152.329 173.88C152.024 173.631 151.64 173.507 151.176 173.507C150.709 173.507 150.321 173.631 150.013 173.88C149.708 174.129 149.481 174.458 149.331 174.869C149.186 175.277 149.113 175.724 149.113 176.212C149.113 176.702 149.186 177.151 149.331 177.559C149.481 177.967 149.708 178.293 150.013 178.538C150.321 178.784 150.709 178.906 151.176 178.906ZM159.955 172.364V173.557H155.783V172.364H159.955ZM156.902 170.534H158.388V177.758C158.388 178.046 158.432 178.263 158.518 178.409C158.604 178.552 158.715 178.649 158.851 178.702C158.99 178.752 159.141 178.777 159.303 178.777C159.423 178.777 159.527 178.769 159.616 178.752C159.706 178.736 159.776 178.722 159.825 178.712L160.094 179.94C160.008 179.973 159.885 180.007 159.726 180.04C159.567 180.076 159.368 180.096 159.129 180.099C158.738 180.106 158.374 180.036 158.036 179.891C157.697 179.745 157.424 179.519 157.215 179.214C157.006 178.91 156.902 178.527 156.902 178.066V170.534ZM163.821 180.169C163.337 180.169 162.9 180.08 162.509 179.901C162.118 179.718 161.808 179.455 161.579 179.11C161.354 178.765 161.241 178.343 161.241 177.842C161.241 177.411 161.324 177.057 161.49 176.778C161.655 176.5 161.879 176.28 162.161 176.117C162.442 175.955 162.757 175.832 163.105 175.749C163.453 175.666 163.808 175.603 164.169 175.56C164.627 175.507 164.998 175.464 165.283 175.431C165.568 175.395 165.775 175.337 165.904 175.257C166.034 175.178 166.098 175.048 166.098 174.869V174.835C166.098 174.4 165.976 174.064 165.73 173.825C165.488 173.587 165.127 173.467 164.646 173.467C164.146 173.467 163.752 173.578 163.463 173.8C163.178 174.019 162.981 174.263 162.872 174.531L161.475 174.213C161.64 173.749 161.882 173.375 162.2 173.089C162.522 172.801 162.892 172.592 163.309 172.463C163.727 172.33 164.166 172.264 164.627 172.264C164.932 172.264 165.255 172.301 165.596 172.374C165.941 172.443 166.262 172.572 166.561 172.761C166.862 172.95 167.109 173.22 167.301 173.572C167.494 173.92 167.59 174.372 167.59 174.929V180H166.138V178.956H166.078C165.982 179.148 165.838 179.337 165.646 179.523C165.454 179.708 165.207 179.862 164.905 179.985C164.603 180.108 164.242 180.169 163.821 180.169ZM164.144 178.976C164.555 178.976 164.907 178.895 165.198 178.732C165.493 178.57 165.717 178.358 165.869 178.096C166.025 177.831 166.103 177.547 166.103 177.246V176.261C166.05 176.314 165.947 176.364 165.795 176.411C165.646 176.454 165.475 176.492 165.283 176.525C165.091 176.555 164.903 176.583 164.721 176.609C164.539 176.633 164.386 176.652 164.264 176.669C163.975 176.705 163.712 176.767 163.473 176.853C163.238 176.939 163.049 177.063 162.906 177.226C162.767 177.385 162.698 177.597 162.698 177.862C162.698 178.23 162.834 178.509 163.105 178.697C163.377 178.883 163.723 178.976 164.144 178.976ZM171.056 169.818V180H169.57V169.818H171.056Z" fill="#4B4B4B" fill-opacity="0.5"/>
<path d="M120.33 198.273V185.545H121.145V198.273H120.33ZM122.492 189.746C122.453 189.345 122.282 189.034 121.98 188.812C121.679 188.59 121.269 188.479 120.752 188.479C120.401 188.479 120.104 188.528 119.862 188.628C119.62 188.724 119.435 188.858 119.306 189.031C119.18 189.203 119.117 189.398 119.117 189.617C119.11 189.799 119.148 189.959 119.231 190.094C119.317 190.23 119.435 190.348 119.584 190.447C119.733 190.544 119.905 190.628 120.101 190.701C120.297 190.771 120.505 190.83 120.727 190.88L121.642 191.099C122.086 191.198 122.494 191.331 122.865 191.496C123.236 191.662 123.558 191.866 123.83 192.108C124.102 192.35 124.312 192.635 124.461 192.963C124.614 193.291 124.691 193.667 124.695 194.092C124.691 194.715 124.532 195.255 124.218 195.712C123.906 196.166 123.455 196.519 122.865 196.771C122.279 197.02 121.571 197.144 120.742 197.144C119.92 197.144 119.204 197.018 118.595 196.766C117.988 196.514 117.514 196.142 117.173 195.648C116.835 195.151 116.657 194.536 116.641 193.803H118.724C118.747 194.145 118.845 194.43 119.017 194.658C119.193 194.884 119.427 195.054 119.718 195.17C120.013 195.283 120.346 195.339 120.718 195.339C121.082 195.339 121.399 195.286 121.667 195.18C121.939 195.074 122.149 194.927 122.298 194.738C122.448 194.549 122.522 194.332 122.522 194.087C122.522 193.858 122.454 193.666 122.318 193.51C122.186 193.354 121.99 193.222 121.732 193.112C121.477 193.003 121.163 192.903 120.792 192.814L119.683 192.536C118.825 192.327 118.147 192 117.65 191.556C117.153 191.112 116.906 190.514 116.909 189.761C116.906 189.145 117.07 188.606 117.401 188.146C117.736 187.685 118.195 187.325 118.779 187.067C119.362 186.808 120.025 186.679 120.767 186.679C121.523 186.679 122.182 186.808 122.746 187.067C123.313 187.325 123.753 187.685 124.068 188.146C124.383 188.606 124.546 189.14 124.556 189.746H122.492ZM126.486 197L130.707 188.648V188.578H125.79V186.818H132.934V188.603L128.708 197H126.486ZM138.183 197.224C137.328 197.22 136.592 197.01 135.975 196.592C135.362 196.175 134.89 195.57 134.558 194.778C134.23 193.986 134.068 193.033 134.071 191.919C134.071 190.809 134.235 189.862 134.563 189.08C134.895 188.298 135.367 187.703 135.98 187.295C136.597 186.884 137.331 186.679 138.183 186.679C139.035 186.679 139.767 186.884 140.38 187.295C140.997 187.706 141.471 188.303 141.802 189.085C142.133 189.864 142.298 190.809 142.294 191.919C142.294 193.036 142.128 193.991 141.797 194.783C141.469 195.575 140.998 196.18 140.385 196.597C139.772 197.015 139.038 197.224 138.183 197.224ZM138.183 195.439C138.766 195.439 139.232 195.146 139.58 194.559C139.928 193.972 140.1 193.092 140.097 191.919C140.097 191.147 140.017 190.504 139.858 189.99C139.702 189.476 139.48 189.09 139.192 188.832C138.907 188.573 138.57 188.444 138.183 188.444C137.603 188.444 137.139 188.734 136.791 189.314C136.443 189.894 136.267 190.762 136.264 191.919C136.264 192.701 136.342 193.354 136.497 193.878C136.656 194.398 136.88 194.789 137.169 195.051C137.457 195.31 137.795 195.439 138.183 195.439ZM145.741 195.608L145.686 196.155C145.643 196.592 145.56 197.028 145.438 197.462C145.318 197.9 145.192 198.296 145.06 198.651C144.93 199.005 144.826 199.284 144.746 199.486H143.374C143.424 199.29 143.492 199.017 143.578 198.665C143.664 198.317 143.746 197.926 143.822 197.492C143.898 197.058 143.946 196.616 143.966 196.165L143.991 195.608H145.741ZM147.657 197V195.449L151.282 192.093C151.59 191.795 151.848 191.526 152.057 191.288C152.269 191.049 152.43 190.815 152.539 190.587C152.649 190.355 152.703 190.104 152.703 189.836C152.703 189.538 152.636 189.281 152.5 189.065C152.364 188.847 152.178 188.679 151.943 188.563C151.708 188.444 151.441 188.384 151.142 188.384C150.831 188.384 150.559 188.447 150.327 188.573C150.095 188.699 149.916 188.88 149.79 189.115C149.664 189.35 149.601 189.63 149.601 189.955H147.558C147.558 189.289 147.709 188.711 148.01 188.22C148.312 187.73 148.734 187.35 149.278 187.082C149.822 186.813 150.448 186.679 151.157 186.679C151.886 186.679 152.521 186.808 153.061 187.067C153.605 187.322 154.028 187.677 154.329 188.131C154.631 188.585 154.782 189.105 154.782 189.692C154.782 190.076 154.705 190.456 154.553 190.83C154.404 191.205 154.137 191.621 153.752 192.078C153.368 192.532 152.826 193.077 152.127 193.714L150.64 195.17V195.24H154.916V197H147.657ZM160.239 197.139C159.497 197.139 158.836 197.012 158.256 196.756C157.679 196.498 157.223 196.143 156.888 195.692C156.557 195.238 156.386 194.715 156.376 194.121H158.544C158.557 194.37 158.638 194.589 158.787 194.778C158.94 194.963 159.142 195.107 159.394 195.21C159.646 195.313 159.929 195.364 160.244 195.364C160.572 195.364 160.862 195.306 161.114 195.19C161.366 195.074 161.563 194.914 161.706 194.708C161.848 194.503 161.92 194.266 161.92 193.997C161.92 193.725 161.843 193.485 161.691 193.276C161.542 193.064 161.326 192.898 161.045 192.779C160.766 192.66 160.435 192.6 160.05 192.6H159.101V191.019H160.05C160.375 191.019 160.662 190.963 160.91 190.85C161.162 190.737 161.358 190.582 161.497 190.383C161.636 190.181 161.706 189.945 161.706 189.677C161.706 189.422 161.644 189.198 161.522 189.006C161.403 188.81 161.233 188.658 161.015 188.548C160.799 188.439 160.547 188.384 160.259 188.384C159.967 188.384 159.701 188.437 159.459 188.543C159.217 188.646 159.023 188.794 158.877 188.986C158.731 189.178 158.653 189.403 158.643 189.662H156.58C156.59 189.075 156.757 188.558 157.082 188.111C157.407 187.663 157.845 187.314 158.395 187.062C158.948 186.807 159.573 186.679 160.269 186.679C160.972 186.679 161.586 186.807 162.113 187.062C162.64 187.317 163.05 187.662 163.341 188.096C163.636 188.527 163.782 189.011 163.779 189.548C163.782 190.118 163.605 190.593 163.247 190.974C162.892 191.356 162.43 191.598 161.86 191.7V191.78C162.609 191.876 163.179 192.136 163.57 192.56C163.965 192.981 164.16 193.508 164.157 194.141C164.16 194.721 163.993 195.237 163.655 195.688C163.32 196.138 162.858 196.493 162.268 196.751C161.678 197.01 161.001 197.139 160.239 197.139ZM169.423 197.139C168.72 197.139 168.094 197.01 167.544 196.751C166.997 196.493 166.563 196.137 166.241 195.683C165.92 195.228 165.752 194.708 165.739 194.121H167.827C167.85 194.516 168.016 194.836 168.324 195.081C168.632 195.326 168.999 195.449 169.423 195.449C169.761 195.449 170.059 195.374 170.318 195.225C170.58 195.073 170.783 194.862 170.929 194.594C171.078 194.322 171.153 194.01 171.153 193.659C171.153 193.301 171.077 192.986 170.924 192.714C170.775 192.443 170.568 192.231 170.303 192.078C170.038 191.926 169.734 191.848 169.393 191.844C169.095 191.844 168.805 191.906 168.523 192.028C168.245 192.151 168.028 192.318 167.872 192.531L165.958 192.188L166.44 186.818H172.664V188.578H168.215L167.951 191.129H168.011C168.19 190.877 168.46 190.668 168.821 190.502C169.183 190.336 169.587 190.254 170.034 190.254C170.648 190.254 171.194 190.398 171.675 190.686C172.156 190.974 172.535 191.371 172.814 191.874C173.092 192.375 173.23 192.951 173.226 193.604C173.23 194.29 173.07 194.9 172.749 195.434C172.431 195.964 171.985 196.382 171.412 196.687C170.842 196.988 170.179 197.139 169.423 197.139ZM175.657 197.129C175.329 197.129 175.047 197.013 174.812 196.781C174.58 196.546 174.464 196.264 174.464 195.936C174.464 195.611 174.58 195.333 174.812 195.101C175.047 194.869 175.329 194.753 175.657 194.753C175.975 194.753 176.254 194.869 176.493 195.101C176.731 195.333 176.85 195.611 176.85 195.936C176.85 196.155 176.794 196.355 176.681 196.538C176.572 196.717 176.428 196.861 176.249 196.97C176.07 197.076 175.873 197.129 175.657 197.129ZM181.958 197.139C181.192 197.139 180.511 197.015 179.914 196.766C179.321 196.514 178.855 196.171 178.517 195.737C178.179 195.303 178.01 194.811 178.01 194.261C178.01 193.836 178.106 193.447 178.298 193.092C178.494 192.734 178.759 192.438 179.094 192.202C179.429 191.964 179.803 191.811 180.218 191.745V191.675C179.674 191.566 179.233 191.303 178.895 190.885C178.557 190.464 178.388 189.975 178.388 189.418C178.388 188.891 178.542 188.422 178.85 188.011C179.159 187.597 179.581 187.272 180.118 187.037C180.658 186.798 181.271 186.679 181.958 186.679C182.644 186.679 183.255 186.798 183.792 187.037C184.332 187.276 184.757 187.602 185.065 188.016C185.373 188.427 185.529 188.895 185.532 189.418C185.529 189.978 185.356 190.467 185.015 190.885C184.674 191.303 184.236 191.566 183.703 191.675V191.745C184.11 191.811 184.48 191.964 184.811 192.202C185.146 192.438 185.411 192.734 185.607 193.092C185.806 193.447 185.907 193.836 185.91 194.261C185.907 194.811 185.736 195.303 185.398 195.737C185.06 196.171 184.593 196.514 183.996 196.766C183.403 197.015 182.723 197.139 181.958 197.139ZM181.958 195.558C182.299 195.558 182.597 195.497 182.852 195.374C183.108 195.248 183.307 195.076 183.449 194.857C183.595 194.635 183.668 194.38 183.668 194.092C183.668 193.797 183.593 193.536 183.444 193.311C183.295 193.082 183.093 192.903 182.838 192.774C182.582 192.642 182.289 192.575 181.958 192.575C181.629 192.575 181.336 192.642 181.078 192.774C180.819 192.903 180.615 193.082 180.466 193.311C180.32 193.536 180.247 193.797 180.247 194.092C180.247 194.38 180.319 194.635 180.461 194.857C180.604 195.076 180.804 195.248 181.063 195.374C181.321 195.497 181.619 195.558 181.958 195.558ZM181.958 191.009C182.243 191.009 182.496 190.951 182.718 190.835C182.94 190.719 183.114 190.558 183.24 190.353C183.366 190.147 183.429 189.911 183.429 189.642C183.429 189.377 183.366 189.145 183.24 188.946C183.114 188.744 182.942 188.586 182.723 188.474C182.504 188.358 182.249 188.3 181.958 188.3C181.669 188.3 181.414 188.358 181.192 188.474C180.97 188.586 180.796 188.744 180.67 188.946C180.547 189.145 180.486 189.377 180.486 189.642C180.486 189.911 180.549 190.147 180.675 190.353C180.801 190.558 180.975 190.719 181.197 190.835C181.419 190.951 181.673 191.009 181.958 191.009ZM187.818 197L192.039 188.648V188.578H187.122V186.818H194.266V188.603L190.04 197H187.818Z" fill="#4B4B4B"/>
<path d="M99.3079 117.98C110.531 108.855 123.897 102.745 138.142 100.228C152.386 97.7109 167.037 98.8707 180.707 103.597C194.378 108.324 206.617 116.461 216.264 127.239C225.912 138.017 232.649 151.078 235.839 165.187L204.876 172.187C202.877 163.348 198.656 155.164 192.611 148.412C186.567 141.659 178.899 136.561 170.334 133.6C161.769 130.638 152.59 129.911 143.665 131.488C134.741 133.065 126.366 136.894 119.335 142.611L99.3079 117.98Z" fill="#1C529F"/>
<path d="M235.848 165.228C239.28 180.44 238.46 196.304 233.478 211.082C228.497 225.86 219.546 238.983 207.605 249.014C195.665 259.045 181.195 265.597 165.779 267.955C150.363 270.312 134.596 268.382 120.203 262.378L132.426 233.08C141.444 236.842 151.322 238.051 160.981 236.574C170.639 235.098 179.705 230.992 187.186 224.707C194.668 218.423 200.276 210.201 203.397 200.942C206.518 191.683 207.031 181.744 204.881 172.213L235.848 165.228Z" fill="#02A8DD"/>
<path d="M121.78 263.017C107.915 257.556 95.7293 248.545 86.4449 236.889C77.1605 225.233 71.1037 211.34 68.8817 196.605L100.272 191.872C101.664 201.104 105.459 209.808 111.276 217.111C117.092 224.414 124.727 230.059 133.414 233.481L121.78 263.017Z" fill="#FF9901"/>
<path d="M68.8698 196.529C66.6899 181.982 68.3219 167.119 73.6063 153.393C78.8906 139.666 87.6466 127.546 99.018 118.217L119.153 142.759C112.028 148.604 106.542 156.198 103.232 164.798C99.9207 173.398 98.8982 182.71 100.264 191.824L68.8698 196.529Z" fill="#FF5C00"/>
<path d="M27.3942 50H24.4283L28.9474 36.9091H32.5142L37.027 50H34.0611L30.782 39.9006H30.6797L27.3942 50ZM27.2088 44.8544H34.2145V47.0149H27.2088V44.8544ZM41.2745 36.9091V50H38.5515V36.9091H41.2745ZM46.1788 36.9091V50H43.4558V36.9091H46.1788ZM52.5772 50V36.9091H61.3983V39.1911H55.345V42.3104H60.9444V44.5923H55.345V47.718H61.4238V50H52.5772ZM65.8232 40.1818L67.6257 43.6143L69.473 40.1818H72.2663L69.4219 45.0909L72.343 50H69.5625L67.6257 46.6058L65.7209 50H62.9084L65.8232 45.0909L63.0107 40.1818H65.8232ZM73.8835 53.6818V40.1818H76.5682V41.831H76.6896C76.8089 41.5668 76.9815 41.2983 77.2074 41.0256C77.4375 40.7486 77.7358 40.5185 78.1023 40.3352C78.473 40.1477 78.9332 40.054 79.483 40.054C80.1989 40.054 80.8594 40.2415 81.4645 40.6165C82.0696 40.9872 82.5533 41.5476 82.9155 42.2976C83.2777 43.0433 83.4588 43.9787 83.4588 45.1037C83.4588 46.1989 83.282 47.1236 82.9283 47.8778C82.5788 48.6278 82.1016 49.1967 81.4964 49.5845C80.8956 49.968 80.2223 50.1598 79.4766 50.1598C78.9482 50.1598 78.4986 50.0724 78.1278 49.8977C77.7614 49.723 77.4609 49.5036 77.2266 49.2393C76.9922 48.9709 76.8132 48.7003 76.6896 48.4276H76.6065V53.6818H73.8835ZM76.549 45.0909C76.549 45.6747 76.63 46.1839 76.7919 46.6186C76.9538 47.0533 77.1882 47.392 77.495 47.6349C77.8018 47.8736 78.1747 47.9929 78.6136 47.9929C79.0568 47.9929 79.4318 47.8714 79.7386 47.6286C80.0455 47.3814 80.2777 47.0405 80.4354 46.6058C80.5973 46.1669 80.6783 45.6619 80.6783 45.0909C80.6783 44.5241 80.5994 44.0256 80.4418 43.5952C80.2841 43.1648 80.0518 42.8281 79.745 42.5852C79.4382 42.3423 79.0611 42.2209 78.6136 42.2209C78.1705 42.2209 77.7955 42.3381 77.4886 42.5724C77.1861 42.8068 76.9538 43.1392 76.7919 43.5696C76.63 44 76.549 44.5071 76.549 45.0909ZM89.7486 50.1918C88.7386 50.1918 87.8693 49.9872 87.1406 49.5781C86.4162 49.1648 85.858 48.581 85.4659 47.8267C85.0739 47.0682 84.8778 46.1712 84.8778 45.1357C84.8778 44.1257 85.0739 43.2393 85.4659 42.4766C85.858 41.7138 86.4098 41.1193 87.1214 40.6932C87.8374 40.267 88.6768 40.054 89.6399 40.054C90.2876 40.054 90.8906 40.1584 91.4489 40.3672C92.0114 40.5717 92.5014 40.8807 92.919 41.294C93.3409 41.7074 93.669 42.2273 93.9034 42.8537C94.1378 43.4759 94.255 44.2045 94.255 45.0398V45.7876H85.9645V44.1001H91.6918C91.6918 43.7081 91.6065 43.3608 91.4361 43.0582C91.2656 42.7557 91.0291 42.5192 90.7266 42.3487C90.4283 42.174 90.081 42.0866 89.6847 42.0866C89.2713 42.0866 88.9048 42.1825 88.5852 42.3743C88.2699 42.5618 88.0227 42.8153 87.8438 43.1349C87.6648 43.4503 87.5732 43.8018 87.5689 44.1896V45.794C87.5689 46.2798 87.6584 46.6996 87.8374 47.0533C88.0206 47.407 88.2784 47.6797 88.6108 47.8714C88.9432 48.0632 89.3374 48.1591 89.7933 48.1591C90.0959 48.1591 90.3729 48.1165 90.6243 48.0312C90.8757 47.946 91.0909 47.8182 91.2699 47.6477C91.4489 47.4773 91.5852 47.2685 91.679 47.0213L94.1974 47.1875C94.0696 47.7926 93.8075 48.321 93.4112 48.7727C93.0192 49.2202 92.5121 49.5696 91.8899 49.821C91.272 50.0682 90.5582 50.1918 89.7486 50.1918ZM98.755 44.3239V50H96.032V40.1818H98.6271V41.9141H98.7422C98.9595 41.343 99.3239 40.8913 99.8352 40.5589C100.347 40.2223 100.967 40.054 101.695 40.054C102.377 40.054 102.972 40.2031 103.479 40.5014C103.986 40.7997 104.38 41.2259 104.661 41.7798C104.942 42.3295 105.083 42.9858 105.083 43.7486V50H102.36V44.2344C102.364 43.6335 102.211 43.1648 101.9 42.8281C101.589 42.4872 101.161 42.3168 100.615 42.3168C100.249 42.3168 99.9247 42.3956 99.6435 42.5533C99.3665 42.7109 99.1491 42.9411 98.9915 43.2436C98.8381 43.5419 98.7592 43.902 98.755 44.3239ZM115.398 42.9815L112.905 43.1349C112.863 42.9219 112.771 42.7301 112.631 42.5597C112.49 42.3849 112.305 42.2464 112.074 42.1442C111.849 42.0376 111.578 41.9844 111.263 41.9844C110.841 41.9844 110.485 42.0739 110.195 42.2528C109.905 42.4276 109.76 42.6619 109.76 42.956C109.76 43.1903 109.854 43.3885 110.042 43.5504C110.229 43.7124 110.551 43.8423 111.007 43.9403L112.784 44.2983C113.738 44.4943 114.45 44.8097 114.919 45.2443C115.388 45.679 115.622 46.25 115.622 46.9574C115.622 47.6009 115.432 48.1655 115.053 48.6513C114.678 49.1371 114.162 49.5163 113.506 49.7891C112.854 50.0575 112.102 50.1918 111.25 50.1918C109.95 50.1918 108.915 49.9212 108.143 49.38C107.376 48.8345 106.927 48.093 106.795 47.1555L109.473 47.0149C109.554 47.4112 109.75 47.7138 110.061 47.9226C110.372 48.1271 110.77 48.2294 111.256 48.2294C111.733 48.2294 112.117 48.1378 112.407 47.9545C112.701 47.767 112.85 47.5263 112.854 47.2322C112.85 46.9851 112.746 46.7827 112.541 46.625C112.336 46.4631 112.021 46.3395 111.595 46.2543L109.895 45.9155C108.936 45.7237 108.222 45.3913 107.753 44.9183C107.289 44.4453 107.057 43.8423 107.057 43.1094C107.057 42.4787 107.227 41.9354 107.568 41.4794C107.913 41.0234 108.397 40.6719 109.019 40.4247C109.645 40.1776 110.378 40.054 111.218 40.054C112.458 40.054 113.434 40.3161 114.145 40.8402C114.861 41.3643 115.279 42.0781 115.398 42.9815ZM121.811 50.1918C120.801 50.1918 119.932 49.9872 119.203 49.5781C118.479 49.1648 117.92 48.581 117.528 47.8267C117.136 47.0682 116.94 46.1712 116.94 45.1357C116.94 44.1257 117.136 43.2393 117.528 42.4766C117.92 41.7138 118.472 41.1193 119.184 40.6932C119.9 40.267 120.739 40.054 121.702 40.054C122.35 40.054 122.953 40.1584 123.511 40.3672C124.074 40.5717 124.564 40.8807 124.982 41.294C125.403 41.7074 125.732 42.2273 125.966 42.8537C126.2 43.4759 126.317 44.2045 126.317 45.0398V45.7876H118.027V44.1001H123.754C123.754 43.7081 123.669 43.3608 123.499 43.0582C123.328 42.7557 123.092 42.5192 122.789 42.3487C122.491 42.174 122.143 42.0866 121.747 42.0866C121.334 42.0866 120.967 42.1825 120.648 42.3743C120.332 42.5618 120.085 42.8153 119.906 43.1349C119.727 43.4503 119.636 43.8018 119.631 44.1896V45.794C119.631 46.2798 119.721 46.6996 119.9 47.0533C120.083 47.407 120.341 47.6797 120.673 47.8714C121.006 48.0632 121.4 48.1591 121.856 48.1591C122.158 48.1591 122.435 48.1165 122.687 48.0312C122.938 47.946 123.153 47.8182 123.332 47.6477C123.511 47.4773 123.648 47.2685 123.741 47.0213L126.26 47.1875C126.132 47.7926 125.87 48.321 125.474 48.7727C125.082 49.2202 124.575 49.5696 123.952 49.821C123.335 50.0682 122.621 50.1918 121.811 50.1918ZM136.263 42.9815L133.771 43.1349C133.728 42.9219 133.636 42.7301 133.496 42.5597C133.355 42.3849 133.17 42.2464 132.94 42.1442C132.714 42.0376 132.443 41.9844 132.128 41.9844C131.706 41.9844 131.35 42.0739 131.06 42.2528C130.771 42.4276 130.626 42.6619 130.626 42.956C130.626 43.1903 130.719 43.3885 130.907 43.5504C131.094 43.7124 131.416 43.8423 131.872 43.9403L133.649 44.2983C134.604 44.4943 135.315 44.8097 135.784 45.2443C136.253 45.679 136.487 46.25 136.487 46.9574C136.487 47.6009 136.298 48.1655 135.918 48.6513C135.543 49.1371 135.028 49.5163 134.371 49.7891C133.719 50.0575 132.967 50.1918 132.115 50.1918C130.815 50.1918 129.78 49.9212 129.009 49.38C128.241 48.8345 127.792 48.093 127.66 47.1555L130.338 47.0149C130.419 47.4112 130.615 47.7138 130.926 47.9226C131.237 48.1271 131.636 48.2294 132.121 48.2294C132.599 48.2294 132.982 48.1378 133.272 47.9545C133.566 47.767 133.715 47.5263 133.719 47.2322C133.715 46.9851 133.611 46.7827 133.406 46.625C133.202 46.4631 132.886 46.3395 132.46 46.2543L130.76 45.9155C129.801 45.7237 129.087 45.3913 128.619 44.9183C128.154 44.4453 127.922 43.8423 127.922 43.1094C127.922 42.4787 128.092 41.9354 128.433 41.4794C128.778 41.0234 129.262 40.6719 129.884 40.4247C130.511 40.1776 131.244 40.054 132.083 40.054C133.323 40.054 134.299 40.3161 135.011 40.8402C135.727 41.3643 136.144 42.0781 136.263 42.9815Z" fill="#4B4B4B"/>
<path d="M57.9588 320V311.273H63.3707V312.406H59.2756V315.065H62.983V316.195H59.2756V320H57.9588ZM67.1644 320.132C66.5508 320.132 66.0153 319.991 65.5579 319.71C65.1005 319.429 64.7454 319.036 64.4925 318.53C64.2397 318.024 64.1133 317.433 64.1133 316.757C64.1133 316.078 64.2397 315.484 64.4925 314.976C64.7454 314.467 65.1005 314.072 65.5579 313.791C66.0153 313.51 66.5508 313.369 67.1644 313.369C67.7781 313.369 68.3136 313.51 68.771 313.791C69.2283 314.072 69.5835 314.467 69.8363 314.976C70.0891 315.484 70.2156 316.078 70.2156 316.757C70.2156 317.433 70.0891 318.024 69.8363 318.53C69.5835 319.036 69.2283 319.429 68.771 319.71C68.3136 319.991 67.7781 320.132 67.1644 320.132ZM67.1687 319.062C67.5664 319.062 67.896 318.957 68.1573 318.747C68.4187 318.537 68.6119 318.257 68.7369 317.908C68.8647 317.558 68.9286 317.173 68.9286 316.753C68.9286 316.335 68.8647 315.952 68.7369 315.602C68.6119 315.25 68.4187 314.967 68.1573 314.754C67.896 314.541 67.5664 314.435 67.1687 314.435C66.7681 314.435 66.4357 314.541 66.1715 314.754C65.9102 314.967 65.7156 315.25 65.5877 315.602C65.4627 315.952 65.4002 316.335 65.4002 316.753C65.4002 317.173 65.4627 317.558 65.5877 317.908C65.7156 318.257 65.9102 318.537 66.1715 318.747C66.4357 318.957 66.7681 319.062 67.1687 319.062ZM74.3949 320.132C73.7813 320.132 73.2457 319.991 72.7884 319.71C72.331 319.429 71.9759 319.036 71.723 318.53C71.4702 318.024 71.3438 317.433 71.3438 316.757C71.3438 316.078 71.4702 315.484 71.723 314.976C71.9759 314.467 72.331 314.072 72.7884 313.791C73.2457 313.51 73.7813 313.369 74.3949 313.369C75.0085 313.369 75.544 313.51 76.0014 313.791C76.4588 314.072 76.8139 314.467 77.0668 314.976C77.3196 315.484 77.446 316.078 77.446 316.757C77.446 317.433 77.3196 318.024 77.0668 318.53C76.8139 319.036 76.4588 319.429 76.0014 319.71C75.544 319.991 75.0085 320.132 74.3949 320.132ZM74.3991 319.062C74.7969 319.062 75.1264 318.957 75.3878 318.747C75.6491 318.537 75.8423 318.257 75.9673 317.908C76.0952 317.558 76.1591 317.173 76.1591 316.753C76.1591 316.335 76.0952 315.952 75.9673 315.602C75.8423 315.25 75.6491 314.967 75.3878 314.754C75.1264 314.541 74.7969 314.435 74.3991 314.435C73.9986 314.435 73.6662 314.541 73.402 314.754C73.1406 314.967 72.946 315.25 72.8182 315.602C72.6932 315.952 72.6307 316.335 72.6307 316.753C72.6307 317.173 72.6932 317.558 72.8182 317.908C72.946 318.257 73.1406 318.537 73.402 318.747C73.6662 318.957 73.9986 319.062 74.3991 319.062ZM81.3185 320.128C80.7901 320.128 80.3185 319.993 79.9038 319.723C79.4918 319.45 79.168 319.062 78.9322 318.56C78.6992 318.054 78.5827 317.447 78.5827 316.74C78.5827 316.033 78.7006 315.428 78.9364 314.925C79.1751 314.422 79.5018 314.037 79.9165 313.77C80.3313 313.503 80.8015 313.369 81.3271 313.369C81.7333 313.369 82.06 313.438 82.3072 313.574C82.5572 313.707 82.7504 313.864 82.8867 314.043C83.0259 314.222 83.1339 314.379 83.2106 314.516H83.2873V311.273H84.5614V320H83.3171V318.982H83.2106C83.1339 319.121 83.0231 319.28 82.8782 319.459C82.7362 319.638 82.5401 319.794 82.2901 319.928C82.0401 320.061 81.7163 320.128 81.3185 320.128ZM81.5998 319.041C81.9663 319.041 82.2759 318.945 82.5288 318.751C82.7844 318.555 82.9776 318.284 83.1083 317.938C83.2418 317.591 83.3086 317.187 83.3086 316.727C83.3086 316.273 83.2433 315.875 83.1126 315.534C82.9819 315.193 82.7901 314.928 82.5373 314.737C82.2844 314.547 81.9719 314.452 81.5998 314.452C81.2163 314.452 80.8967 314.551 80.641 314.75C80.3853 314.949 80.1921 315.22 80.0614 315.564C79.9336 315.908 79.8697 316.295 79.8697 316.727C79.8697 317.165 79.935 317.558 80.0657 317.908C80.1964 318.257 80.3896 318.534 80.6452 318.739C80.9038 318.94 81.2219 319.041 81.5998 319.041ZM92.0955 320.124C91.5103 320.124 91.006 320.017 90.5827 319.804C90.1623 319.591 89.8384 319.301 89.6112 318.935C89.3839 318.565 89.2702 318.148 89.2702 317.682C89.2702 317.327 89.3441 317.011 89.4918 316.736C89.6396 316.457 89.8455 316.2 90.1097 315.964C90.3739 315.729 90.6793 315.491 91.0259 315.253L92.4322 314.26C92.6708 314.104 92.8569 313.939 92.9904 313.766C93.1239 313.589 93.1907 313.372 93.1907 313.114C93.1907 312.909 93.1026 312.713 92.9265 312.526C92.7504 312.338 92.5146 312.244 92.2191 312.244C92.0146 312.244 91.8342 312.294 91.6779 312.393C91.5245 312.493 91.4038 312.621 91.3157 312.777C91.2305 312.93 91.1879 313.092 91.1879 313.263C91.1879 313.462 91.2418 313.662 91.3498 313.864C91.4606 314.065 91.6026 314.274 91.7759 314.49C91.9492 314.703 92.131 314.925 92.3214 315.155L96.3739 320H94.9336L91.5799 316.058C91.2987 315.726 91.0373 315.413 90.7958 315.121C90.5543 314.825 90.3583 314.527 90.2077 314.226C90.06 313.922 89.9862 313.594 89.9862 313.241C89.9862 312.841 90.0771 312.486 90.2589 312.176C90.4435 311.864 90.7006 311.619 91.0302 311.443C91.3597 311.267 91.7461 311.179 92.1893 311.179C92.6381 311.179 93.0231 311.267 93.3441 311.443C93.668 311.616 93.9165 311.848 94.0898 312.138C94.266 312.425 94.354 312.739 94.354 313.08C94.354 313.494 94.2504 313.861 94.043 314.179C93.8384 314.494 93.5558 314.784 93.195 315.048L91.4435 316.339C91.1026 316.589 90.8654 316.837 90.7319 317.081C90.6012 317.322 90.5359 317.511 90.5359 317.648C90.5359 317.898 90.5998 318.129 90.7276 318.342C90.8583 318.555 91.0401 318.726 91.2731 318.854C91.5089 318.982 91.7844 319.045 92.0998 319.045C92.4237 319.045 92.739 318.976 93.0458 318.837C93.3555 318.695 93.6353 318.491 93.8853 318.227C94.1381 317.963 94.3384 317.646 94.4862 317.277C94.6339 316.908 94.7077 316.494 94.7077 316.037H95.8583C95.8583 316.599 95.7944 317.075 95.6665 317.464C95.5387 317.851 95.3839 318.166 95.2021 318.411C95.0231 318.652 94.854 318.841 94.695 318.977C94.6438 319.023 94.5955 319.068 94.5501 319.114C94.5046 319.159 94.4563 319.205 94.4052 319.25C94.1097 319.548 93.7518 319.768 93.3313 319.911C92.9137 320.053 92.5018 320.124 92.0955 320.124ZM103.475 320H100.65V311.273H103.565C104.42 311.273 105.154 311.447 105.768 311.797C106.382 312.143 106.852 312.642 107.179 313.293C107.508 313.94 107.673 314.717 107.673 315.624C107.673 316.533 107.507 317.314 107.174 317.967C106.845 318.621 106.368 319.124 105.743 319.476C105.118 319.825 104.362 320 103.475 320ZM101.967 318.849H103.403C104.068 318.849 104.62 318.724 105.061 318.474C105.501 318.222 105.831 317.857 106.049 317.379C106.268 316.899 106.377 316.314 106.377 315.624C106.377 314.939 106.268 314.358 106.049 313.881C105.833 313.403 105.511 313.041 105.082 312.794C104.653 312.547 104.12 312.423 103.484 312.423H101.967V318.849ZM109.208 320V313.455H110.44V314.494H110.508C110.627 314.142 110.837 313.865 111.138 313.663C111.442 313.459 111.786 313.357 112.17 313.357C112.249 313.357 112.343 313.359 112.451 313.365C112.562 313.371 112.648 313.378 112.711 313.386V314.605C112.66 314.591 112.569 314.575 112.438 314.558C112.308 314.538 112.177 314.528 112.046 314.528C111.745 314.528 111.477 314.592 111.241 314.72C111.008 314.845 110.823 315.02 110.687 315.244C110.55 315.466 110.482 315.719 110.482 316.003V320H109.208ZM113.814 320V313.455H115.088V320H113.814ZM114.457 312.445C114.235 312.445 114.045 312.371 113.886 312.223C113.73 312.072 113.652 311.893 113.652 311.686C113.652 311.476 113.73 311.297 113.886 311.149C114.045 310.999 114.235 310.923 114.457 310.923C114.679 310.923 114.868 310.999 115.024 311.149C115.183 311.297 115.262 311.476 115.262 311.686C115.262 311.893 115.183 312.072 115.024 312.223C114.868 312.371 114.679 312.445 114.457 312.445ZM118.076 316.114V320H116.802V313.455H118.025V314.52H118.106C118.256 314.173 118.492 313.895 118.813 313.685C119.137 313.474 119.545 313.369 120.036 313.369C120.482 313.369 120.873 313.463 121.208 313.651C121.543 313.835 121.803 314.111 121.988 314.477C122.173 314.844 122.265 315.297 122.265 315.837V320H120.991V315.99C120.991 315.516 120.867 315.145 120.62 314.878C120.373 314.608 120.033 314.473 119.602 314.473C119.306 314.473 119.043 314.537 118.813 314.665C118.586 314.793 118.406 314.98 118.272 315.227C118.141 315.472 118.076 315.767 118.076 316.114ZM125.146 317.78L125.137 316.224H125.359L127.967 313.455H129.492L126.518 316.608H126.317L125.146 317.78ZM123.974 320V311.273H125.248V320H123.974ZM128.107 320L125.763 316.889L126.641 315.999L129.671 320H128.107ZM135.558 315.053L134.403 315.257C134.355 315.109 134.278 314.969 134.173 314.835C134.071 314.702 133.932 314.592 133.756 314.507C133.58 314.422 133.359 314.379 133.095 314.379C132.734 314.379 132.433 314.46 132.192 314.622C131.95 314.781 131.83 314.987 131.83 315.24C131.83 315.459 131.911 315.635 132.072 315.768C132.234 315.902 132.496 316.011 132.857 316.097L133.896 316.335C134.499 316.474 134.947 316.689 135.243 316.979C135.538 317.268 135.686 317.645 135.686 318.108C135.686 318.5 135.572 318.849 135.345 319.156C135.121 319.46 134.807 319.699 134.403 319.872C134.003 320.045 133.538 320.132 133.01 320.132C132.277 320.132 131.679 319.976 131.216 319.663C130.753 319.348 130.469 318.901 130.364 318.321L131.595 318.134C131.672 318.455 131.83 318.697 132.068 318.862C132.307 319.024 132.618 319.105 133.001 319.105C133.419 319.105 133.753 319.018 134.003 318.845C134.253 318.669 134.378 318.455 134.378 318.202C134.378 317.997 134.301 317.825 134.148 317.686C133.997 317.547 133.766 317.442 133.453 317.371L132.345 317.128C131.734 316.989 131.283 316.767 130.99 316.463C130.7 316.159 130.555 315.774 130.555 315.308C130.555 314.922 130.663 314.584 130.879 314.294C131.095 314.004 131.393 313.778 131.774 313.616C132.155 313.452 132.591 313.369 133.082 313.369C133.79 313.369 134.347 313.523 134.753 313.83C135.159 314.134 135.428 314.541 135.558 315.053Z" fill="#4B4B4B"/>
<circle cx="43" cy="316" r="6" fill="#1C529F"/>
<path d="M194.722 311.273L197.151 318.381H197.249L199.678 311.273H201.101L197.96 320H196.439L193.298 311.273H194.722ZM203.519 320.145C203.104 320.145 202.729 320.068 202.394 319.915C202.059 319.759 201.793 319.533 201.597 319.237C201.404 318.942 201.308 318.58 201.308 318.151C201.308 317.781 201.379 317.477 201.521 317.239C201.663 317 201.854 316.811 202.096 316.672C202.337 316.533 202.607 316.428 202.906 316.357C203.204 316.286 203.508 316.232 203.817 316.195C204.21 316.149 204.528 316.112 204.772 316.084C205.016 316.053 205.194 316.003 205.305 315.935C205.415 315.866 205.471 315.756 205.471 315.602V315.572C205.471 315.2 205.366 314.912 205.156 314.707C204.948 314.503 204.638 314.401 204.227 314.401C203.798 314.401 203.46 314.496 203.212 314.686C202.968 314.874 202.799 315.082 202.705 315.312L201.508 315.04C201.65 314.642 201.857 314.321 202.13 314.077C202.406 313.83 202.722 313.651 203.08 313.54C203.438 313.426 203.815 313.369 204.21 313.369C204.471 313.369 204.748 313.401 205.04 313.463C205.336 313.523 205.612 313.634 205.867 313.795C206.126 313.957 206.337 314.189 206.502 314.49C206.667 314.788 206.749 315.176 206.749 315.653V320H205.505V319.105H205.454C205.371 319.27 205.248 319.432 205.083 319.591C204.918 319.75 204.707 319.882 204.448 319.987C204.19 320.092 203.88 320.145 203.519 320.145ZM203.796 319.122C204.148 319.122 204.45 319.053 204.7 318.913C204.952 318.774 205.144 318.592 205.275 318.368C205.408 318.141 205.475 317.898 205.475 317.639V316.795C205.43 316.841 205.342 316.884 205.211 316.923C205.083 316.96 204.937 316.993 204.772 317.021C204.607 317.047 204.447 317.071 204.29 317.094C204.134 317.114 204.004 317.131 203.898 317.145C203.651 317.176 203.425 317.229 203.221 317.303C203.019 317.376 202.857 317.483 202.735 317.622C202.616 317.759 202.556 317.94 202.556 318.168C202.556 318.483 202.673 318.722 202.906 318.884C203.138 319.043 203.435 319.122 203.796 319.122ZM211.203 320.132C210.57 320.132 210.025 319.989 209.567 319.702C209.113 319.412 208.763 319.013 208.519 318.504C208.275 317.996 208.152 317.413 208.152 316.757C208.152 316.092 208.277 315.506 208.527 314.997C208.777 314.486 209.13 314.087 209.584 313.8C210.039 313.513 210.574 313.369 211.191 313.369C211.688 313.369 212.131 313.462 212.52 313.646C212.909 313.828 213.223 314.084 213.462 314.413C213.703 314.743 213.847 315.128 213.892 315.568H212.652C212.584 315.261 212.428 314.997 212.184 314.776C211.942 314.554 211.618 314.443 211.212 314.443C210.857 314.443 210.546 314.537 210.279 314.724C210.015 314.909 209.809 315.173 209.661 315.517C209.513 315.858 209.439 316.261 209.439 316.727C209.439 317.205 209.512 317.616 209.657 317.963C209.801 318.31 210.006 318.578 210.27 318.768C210.537 318.959 210.851 319.054 211.212 319.054C211.453 319.054 211.672 319.01 211.868 318.922C212.067 318.831 212.233 318.702 212.367 318.534C212.503 318.366 212.598 318.165 212.652 317.929H213.892C213.847 318.352 213.709 318.73 213.479 319.062C213.249 319.395 212.941 319.656 212.554 319.847C212.171 320.037 211.721 320.132 211.203 320.132ZM217.16 320.145C216.745 320.145 216.37 320.068 216.035 319.915C215.7 319.759 215.434 319.533 215.238 319.237C215.045 318.942 214.948 318.58 214.948 318.151C214.948 317.781 215.019 317.477 215.161 317.239C215.303 317 215.495 316.811 215.737 316.672C215.978 316.533 216.248 316.428 216.546 316.357C216.844 316.286 217.148 316.232 217.458 316.195C217.85 316.149 218.168 316.112 218.413 316.084C218.657 316.053 218.835 316.003 218.945 315.935C219.056 315.866 219.112 315.756 219.112 315.602V315.572C219.112 315.2 219.006 314.912 218.796 314.707C218.589 314.503 218.279 314.401 217.867 314.401C217.438 314.401 217.1 314.496 216.853 314.686C216.609 314.874 216.44 315.082 216.346 315.312L215.148 315.04C215.29 314.642 215.498 314.321 215.771 314.077C216.046 313.83 216.363 313.651 216.721 313.54C217.079 313.426 217.455 313.369 217.85 313.369C218.112 313.369 218.388 313.401 218.681 313.463C218.977 313.523 219.252 313.634 219.508 313.795C219.766 313.957 219.978 314.189 220.143 314.49C220.308 314.788 220.39 315.176 220.39 315.653V320H219.146V319.105H219.094C219.012 319.27 218.888 319.432 218.724 319.591C218.559 319.75 218.347 319.882 218.089 319.987C217.83 320.092 217.521 320.145 217.16 320.145ZM217.437 319.122C217.789 319.122 218.09 319.053 218.34 318.913C218.593 318.774 218.785 318.592 218.915 318.368C219.049 318.141 219.116 317.898 219.116 317.639V316.795C219.07 316.841 218.982 316.884 218.852 316.923C218.724 316.96 218.577 316.993 218.413 317.021C218.248 317.047 218.087 317.071 217.931 317.094C217.775 317.114 217.644 317.131 217.539 317.145C217.292 317.176 217.066 317.229 216.862 317.303C216.66 317.376 216.498 317.483 216.376 317.622C216.256 317.759 216.197 317.94 216.197 318.168C216.197 318.483 216.313 318.722 216.546 318.884C216.779 319.043 217.076 319.122 217.437 319.122ZM225.142 313.455V314.477H221.567V313.455H225.142ZM222.526 311.886H223.8V318.078C223.8 318.325 223.837 318.511 223.911 318.636C223.985 318.759 224.08 318.842 224.196 318.888C224.316 318.93 224.445 318.952 224.584 318.952C224.686 318.952 224.776 318.945 224.853 318.93C224.929 318.916 224.989 318.905 225.032 318.896L225.262 319.949C225.188 319.977 225.083 320.006 224.946 320.034C224.81 320.065 224.64 320.082 224.435 320.085C224.1 320.091 223.787 320.031 223.498 319.906C223.208 319.781 222.973 319.588 222.794 319.327C222.615 319.065 222.526 318.737 222.526 318.342V311.886ZM226.552 320V313.455H227.826V320H226.552ZM227.195 312.445C226.974 312.445 226.783 312.371 226.624 312.223C226.468 312.072 226.39 311.893 226.39 311.686C226.39 311.476 226.468 311.297 226.624 311.149C226.783 310.999 226.974 310.923 227.195 310.923C227.417 310.923 227.606 310.999 227.762 311.149C227.921 311.297 228.001 311.476 228.001 311.686C228.001 311.893 227.921 312.072 227.762 312.223C227.606 312.371 227.417 312.445 227.195 312.445ZM232.297 320.132C231.684 320.132 231.148 319.991 230.691 319.71C230.233 319.429 229.878 319.036 229.625 318.53C229.373 318.024 229.246 317.433 229.246 316.757C229.246 316.078 229.373 315.484 229.625 314.976C229.878 314.467 230.233 314.072 230.691 313.791C231.148 313.51 231.684 313.369 232.297 313.369C232.911 313.369 233.446 313.51 233.904 313.791C234.361 314.072 234.716 314.467 234.969 314.976C235.222 315.484 235.348 316.078 235.348 316.757C235.348 317.433 235.222 318.024 234.969 318.53C234.716 319.036 234.361 319.429 233.904 319.71C233.446 319.991 232.911 320.132 232.297 320.132ZM232.301 319.062C232.699 319.062 233.029 318.957 233.29 318.747C233.551 318.537 233.745 318.257 233.87 317.908C233.998 317.558 234.061 317.173 234.061 316.753C234.061 316.335 233.998 315.952 233.87 315.602C233.745 315.25 233.551 314.967 233.29 314.754C233.029 314.541 232.699 314.435 232.301 314.435C231.901 314.435 231.569 314.541 231.304 314.754C231.043 314.967 230.848 315.25 230.721 315.602C230.596 315.952 230.533 316.335 230.533 316.753C230.533 317.173 230.596 317.558 230.721 317.908C230.848 318.257 231.043 318.537 231.304 318.747C231.569 318.957 231.901 319.062 232.301 319.062ZM238.045 316.114V320H236.771V313.455H237.994V314.52H238.075C238.225 314.173 238.461 313.895 238.782 313.685C239.106 313.474 239.513 313.369 240.005 313.369C240.451 313.369 240.842 313.463 241.177 313.651C241.512 313.835 241.772 314.111 241.957 314.477C242.141 314.844 242.234 315.297 242.234 315.837V320H240.96V315.99C240.96 315.516 240.836 315.145 240.589 314.878C240.342 314.608 240.002 314.473 239.57 314.473C239.275 314.473 239.012 314.537 238.782 314.665C238.555 314.793 238.374 314.98 238.241 315.227C238.11 315.472 238.045 315.767 238.045 316.114Z" fill="#4B4B4B"/>
<circle cx="179" cy="316" r="6" fill="#FF9901"/>
<path d="M57.9588 346V337.273H63.4304V338.406H59.2756V341.065H63.1449V342.195H59.2756V344.866H63.4815V346H57.9588ZM66.3612 342.114V346H65.087V339.455H66.31V340.52H66.391C66.5415 340.173 66.7773 339.895 67.0984 339.685C67.4222 339.474 67.8299 339.369 68.3214 339.369C68.7674 339.369 69.158 339.463 69.4933 339.651C69.8285 339.835 70.0884 340.111 70.2731 340.477C70.4577 340.844 70.5501 341.297 70.5501 341.837V346H69.2759V341.99C69.2759 341.516 69.1523 341.145 68.9052 340.878C68.658 340.608 68.3185 340.473 67.8867 340.473C67.5913 340.473 67.3285 340.537 67.0984 340.665C66.8711 340.793 66.6907 340.98 66.5572 341.227C66.4265 341.472 66.3612 341.767 66.3612 342.114ZM75.3143 339.455V340.477H71.739V339.455H75.3143ZM72.6978 337.886H73.9719V344.078C73.9719 344.325 74.0089 344.511 74.0827 344.636C74.1566 344.759 74.2518 344.842 74.3683 344.888C74.4876 344.93 74.6168 344.952 74.756 344.952C74.8583 344.952 74.9478 344.945 75.0245 344.93C75.1012 344.916 75.1609 344.905 75.2035 344.896L75.4336 345.949C75.3597 345.977 75.2546 346.006 75.1183 346.034C74.9819 346.065 74.8114 346.082 74.6069 346.085C74.2717 346.091 73.9592 346.031 73.6694 345.906C73.3796 345.781 73.1452 345.588 72.9663 345.327C72.7873 345.065 72.6978 344.737 72.6978 344.342V337.886ZM79.4744 346.132C78.8295 346.132 78.2741 345.994 77.8082 345.719C77.3452 345.44 76.9872 345.05 76.7344 344.547C76.4844 344.041 76.3594 343.449 76.3594 342.77C76.3594 342.099 76.4844 341.509 76.7344 340.997C76.9872 340.486 77.3395 340.087 77.7912 339.8C78.2457 339.513 78.777 339.369 79.3849 339.369C79.7543 339.369 80.1122 339.43 80.4588 339.553C80.8054 339.675 81.1165 339.866 81.392 340.128C81.6676 340.389 81.8849 340.729 82.044 341.146C82.2031 341.561 82.2827 342.065 82.2827 342.659V343.111H77.0795V342.156H81.0341C81.0341 341.821 80.9659 341.524 80.8295 341.266C80.6932 341.004 80.5014 340.798 80.2543 340.648C80.0099 340.497 79.723 340.422 79.3935 340.422C79.0355 340.422 78.723 340.51 78.456 340.686C78.1918 340.859 77.9872 341.087 77.8423 341.368C77.7003 341.646 77.6293 341.949 77.6293 342.276V343.021C77.6293 343.459 77.706 343.831 77.8594 344.138C78.0156 344.445 78.233 344.679 78.5114 344.841C78.7898 345 79.1151 345.08 79.4872 345.08C79.7287 345.08 79.9489 345.045 80.1477 344.977C80.3466 344.906 80.5185 344.801 80.6634 344.662C80.8082 344.523 80.919 344.351 80.9957 344.146L82.2017 344.364C82.1051 344.719 81.9318 345.03 81.6818 345.297C81.4347 345.561 81.1236 345.767 80.7486 345.915C80.3764 346.06 79.9517 346.132 79.4744 346.132ZM83.6964 346V339.455H84.9279V340.494H84.9961C85.1154 340.142 85.3256 339.865 85.6268 339.663C85.9308 339.459 86.2745 339.357 86.658 339.357C86.7376 339.357 86.8313 339.359 86.9393 339.365C87.0501 339.371 87.1367 339.378 87.1992 339.386V340.605C87.1481 340.591 87.0572 340.575 86.9265 340.558C86.7958 340.538 86.6651 340.528 86.5344 340.528C86.2333 340.528 85.9648 340.592 85.729 340.72C85.4961 340.845 85.3114 341.02 85.1751 341.244C85.0387 341.466 84.9705 341.719 84.9705 342.003V346H83.6964ZM91.744 339.455V340.477H88.1687V339.455H91.744ZM89.1275 337.886H90.4016V344.078C90.4016 344.325 90.4386 344.511 90.5124 344.636C90.5863 344.759 90.6815 344.842 90.7979 344.888C90.9173 344.93 91.0465 344.952 91.1857 344.952C91.288 344.952 91.3775 344.945 91.4542 344.93C91.5309 344.916 91.5906 344.905 91.6332 344.896L91.8633 345.949C91.7894 345.977 91.6843 346.006 91.5479 346.034C91.4116 346.065 91.2411 346.082 91.0366 346.085C90.7013 346.091 90.3888 346.031 90.0991 345.906C89.8093 345.781 89.5749 345.588 89.396 345.327C89.217 345.065 89.1275 344.737 89.1275 344.342V337.886ZM95.0582 346.145C94.6435 346.145 94.2685 346.068 93.9332 345.915C93.598 345.759 93.3324 345.533 93.1364 345.237C92.9432 344.942 92.8466 344.58 92.8466 344.151C92.8466 343.781 92.9176 343.477 93.0597 343.239C93.2017 343 93.3935 342.811 93.6349 342.672C93.8764 342.533 94.1463 342.428 94.4446 342.357C94.7429 342.286 95.0469 342.232 95.3565 342.195C95.7486 342.149 96.0668 342.112 96.3111 342.084C96.5554 342.053 96.733 342.003 96.8438 341.935C96.9545 341.866 97.0099 341.756 97.0099 341.602V341.572C97.0099 341.2 96.9048 340.912 96.6946 340.707C96.4872 340.503 96.1776 340.401 95.7656 340.401C95.3366 340.401 94.9986 340.496 94.7514 340.686C94.5071 340.874 94.3381 341.082 94.2443 341.312L93.0469 341.04C93.1889 340.642 93.3963 340.321 93.669 340.077C93.9446 339.83 94.2614 339.651 94.6193 339.54C94.9773 339.426 95.3537 339.369 95.7486 339.369C96.0099 339.369 96.2869 339.401 96.5795 339.463C96.875 339.523 97.1506 339.634 97.4062 339.795C97.6648 339.957 97.8764 340.189 98.0412 340.49C98.206 340.788 98.2884 341.176 98.2884 341.653V346H97.044V345.105H96.9929C96.9105 345.27 96.7869 345.432 96.6222 345.591C96.4574 345.75 96.2457 345.882 95.9872 345.987C95.7287 346.092 95.419 346.145 95.0582 346.145ZM95.3352 345.122C95.6875 345.122 95.9886 345.053 96.2386 344.913C96.4915 344.774 96.6832 344.592 96.8139 344.368C96.9474 344.141 97.0142 343.898 97.0142 343.639V342.795C96.9688 342.841 96.8807 342.884 96.75 342.923C96.6222 342.96 96.4759 342.993 96.3111 343.021C96.1463 343.047 95.9858 343.071 95.8295 343.094C95.6733 343.114 95.5426 343.131 95.4375 343.145C95.1903 343.176 94.9645 343.229 94.7599 343.303C94.5582 343.376 94.3963 343.483 94.2741 343.622C94.1548 343.759 94.0952 343.94 94.0952 344.168C94.0952 344.483 94.2116 344.722 94.4446 344.884C94.6776 345.043 94.9744 345.122 95.3352 345.122ZM99.9854 346V339.455H101.26V346H99.9854ZM100.629 338.445C100.407 338.445 100.217 338.371 100.058 338.223C99.9016 338.072 99.8235 337.893 99.8235 337.686C99.8235 337.476 99.9016 337.297 100.058 337.149C100.217 336.999 100.407 336.923 100.629 336.923C100.85 336.923 101.039 336.999 101.196 337.149C101.355 337.297 101.434 337.476 101.434 337.686C101.434 337.893 101.355 338.072 101.196 338.223C101.039 338.371 100.85 338.445 100.629 338.445ZM104.248 342.114V346H102.974V339.455H104.197V340.52H104.278C104.428 340.173 104.664 339.895 104.985 339.685C105.309 339.474 105.717 339.369 106.208 339.369C106.654 339.369 107.045 339.463 107.38 339.651C107.715 339.835 107.975 340.111 108.16 340.477C108.344 340.844 108.437 341.297 108.437 341.837V346H107.163V341.99C107.163 341.516 107.039 341.145 106.792 340.878C106.545 340.608 106.205 340.473 105.773 340.473C105.478 340.473 105.215 340.537 104.985 340.665C104.758 340.793 104.577 340.98 104.444 341.227C104.313 341.472 104.248 341.767 104.248 342.114ZM110.146 346V339.455H111.369V340.52H111.45C111.586 340.159 111.809 339.878 112.119 339.676C112.428 339.472 112.799 339.369 113.231 339.369C113.668 339.369 114.035 339.472 114.33 339.676C114.629 339.881 114.849 340.162 114.991 340.52H115.059C115.215 340.17 115.464 339.892 115.805 339.685C116.146 339.474 116.552 339.369 117.023 339.369C117.617 339.369 118.102 339.555 118.477 339.928C118.854 340.3 119.043 340.861 119.043 341.611V346H117.769V341.73C117.769 341.287 117.648 340.966 117.407 340.767C117.165 340.568 116.877 340.469 116.542 340.469C116.127 340.469 115.805 340.597 115.575 340.852C115.344 341.105 115.229 341.43 115.229 341.828V346H113.96V341.649C113.96 341.294 113.849 341.009 113.627 340.793C113.406 340.577 113.117 340.469 112.762 340.469C112.521 340.469 112.298 340.533 112.093 340.661C111.891 340.786 111.728 340.96 111.603 341.185C111.481 341.409 111.42 341.669 111.42 341.964V346H110.146ZM123.572 346.132C122.927 346.132 122.372 345.994 121.906 345.719C121.443 345.44 121.085 345.05 120.832 344.547C120.582 344.041 120.457 343.449 120.457 342.77C120.457 342.099 120.582 341.509 120.832 340.997C121.085 340.486 121.437 340.087 121.889 339.8C122.343 339.513 122.875 339.369 123.483 339.369C123.852 339.369 124.21 339.43 124.556 339.553C124.903 339.675 125.214 339.866 125.49 340.128C125.765 340.389 125.983 340.729 126.142 341.146C126.301 341.561 126.38 342.065 126.38 342.659V343.111H121.177V342.156H125.132C125.132 341.821 125.064 341.524 124.927 341.266C124.791 341.004 124.599 340.798 124.352 340.648C124.108 340.497 123.821 340.422 123.491 340.422C123.133 340.422 122.821 340.51 122.554 340.686C122.289 340.859 122.085 341.087 121.94 341.368C121.798 341.646 121.727 341.949 121.727 342.276V343.021C121.727 343.459 121.804 343.831 121.957 344.138C122.113 344.445 122.331 344.679 122.609 344.841C122.887 345 123.213 345.08 123.585 345.08C123.826 345.08 124.047 345.045 124.245 344.977C124.444 344.906 124.616 344.801 124.761 344.662C124.906 344.523 125.017 344.351 125.093 344.146L126.299 344.364C126.203 344.719 126.029 345.03 125.779 345.297C125.532 345.561 125.221 345.767 124.846 345.915C124.474 346.06 124.049 346.132 123.572 346.132ZM129.068 342.114V346H127.794V339.455H129.017V340.52H129.098C129.249 340.173 129.484 339.895 129.805 339.685C130.129 339.474 130.537 339.369 131.028 339.369C131.474 339.369 131.865 339.463 132.2 339.651C132.536 339.835 132.795 340.111 132.98 340.477C133.165 340.844 133.257 341.297 133.257 341.837V346H131.983V341.99C131.983 341.516 131.859 341.145 131.612 340.878C131.365 340.608 131.026 340.473 130.594 340.473C130.298 340.473 130.036 340.537 129.805 340.665C129.578 340.793 129.398 340.98 129.264 341.227C129.134 341.472 129.068 341.767 129.068 342.114ZM138.021 339.455V340.477H134.446V339.455H138.021ZM135.405 337.886H136.679V344.078C136.679 344.325 136.716 344.511 136.79 344.636C136.864 344.759 136.959 344.842 137.075 344.888C137.195 344.93 137.324 344.952 137.463 344.952C137.565 344.952 137.655 344.945 137.732 344.93C137.808 344.916 137.868 344.905 137.911 344.896L138.141 345.949C138.067 345.977 137.962 346.006 137.825 346.034C137.689 346.065 137.518 346.082 137.314 346.085C136.979 346.091 136.666 346.031 136.376 345.906C136.087 345.781 135.852 345.588 135.673 345.327C135.494 345.065 135.405 344.737 135.405 344.342V337.886ZM144.23 341.053L143.075 341.257C143.027 341.109 142.95 340.969 142.845 340.835C142.743 340.702 142.604 340.592 142.428 340.507C142.251 340.422 142.031 340.379 141.767 340.379C141.406 340.379 141.105 340.46 140.864 340.622C140.622 340.781 140.501 340.987 140.501 341.24C140.501 341.459 140.582 341.635 140.744 341.768C140.906 341.902 141.168 342.011 141.528 342.097L142.568 342.335C143.17 342.474 143.619 342.689 143.915 342.979C144.21 343.268 144.358 343.645 144.358 344.108C144.358 344.5 144.244 344.849 144.017 345.156C143.793 345.46 143.479 345.699 143.075 345.872C142.675 346.045 142.21 346.132 141.682 346.132C140.949 346.132 140.351 345.976 139.888 345.663C139.425 345.348 139.141 344.901 139.036 344.321L140.267 344.134C140.344 344.455 140.501 344.697 140.74 344.862C140.979 345.024 141.29 345.105 141.673 345.105C142.091 345.105 142.425 345.018 142.675 344.845C142.925 344.669 143.05 344.455 143.05 344.202C143.05 343.997 142.973 343.825 142.82 343.686C142.669 343.547 142.438 343.442 142.125 343.371L141.017 343.128C140.406 342.989 139.955 342.767 139.662 342.463C139.372 342.159 139.227 341.774 139.227 341.308C139.227 340.922 139.335 340.584 139.551 340.294C139.767 340.004 140.065 339.778 140.446 339.616C140.827 339.452 141.263 339.369 141.754 339.369C142.462 339.369 143.018 339.523 143.425 339.83C143.831 340.134 144.099 340.541 144.23 341.053Z" fill="#4B4B4B"/>
<circle cx="43" cy="342" r="6" fill="#02A8DD"/>
<circle cx="179" cy="342" r="6" fill="#FF5C00"/>
<path d="M227.852 49H224.759V40.2727H227.878C228.756 40.2727 229.511 40.4474 230.145 40.7969C230.778 41.1435 231.266 41.642 231.607 42.2926C231.95 42.9432 232.122 43.7216 232.122 44.6278C232.122 45.5369 231.95 46.3182 231.607 46.9716C231.266 47.625 230.776 48.1264 230.136 48.4759C229.5 48.8253 228.739 49 227.852 49ZM226.604 47.419H227.776C228.321 47.419 228.78 47.3224 229.152 47.1293C229.527 46.9332 229.808 46.6307 229.996 46.2216C230.186 45.8097 230.281 45.2784 230.281 44.6278C230.281 43.983 230.186 43.456 229.996 43.0469C229.808 42.6378 229.528 42.3366 229.156 42.1435C228.784 41.9503 228.325 41.8537 227.78 41.8537H226.604V47.419ZM236.438 49.1278C235.765 49.1278 235.185 48.9915 234.699 48.7188C234.216 48.4432 233.844 48.054 233.583 47.5511C233.321 47.0455 233.191 46.4474 233.191 45.7571C233.191 45.0838 233.321 44.4929 233.583 43.9844C233.844 43.4759 234.212 43.0795 234.686 42.7955C235.164 42.5114 235.723 42.3693 236.365 42.3693C236.797 42.3693 237.199 42.4389 237.571 42.5781C237.946 42.7145 238.273 42.9205 238.551 43.196C238.833 43.4716 239.051 43.8182 239.208 44.2358C239.364 44.6506 239.442 45.1364 239.442 45.6932V46.1918H233.915V45.0668H237.733C237.733 44.8054 237.676 44.5739 237.563 44.3722C237.449 44.1705 237.292 44.0128 237.09 43.8991C236.891 43.7827 236.659 43.7244 236.395 43.7244C236.12 43.7244 235.875 43.7884 235.662 43.9162C235.452 44.0412 235.287 44.2102 235.168 44.4233C235.049 44.6335 234.988 44.8679 234.985 45.1264V46.196C234.985 46.5199 235.044 46.7997 235.164 47.0355C235.286 47.2713 235.458 47.4531 235.679 47.581C235.901 47.7088 236.164 47.7727 236.468 47.7727C236.669 47.7727 236.854 47.7443 237.022 47.6875C237.189 47.6307 237.333 47.5455 237.452 47.4318C237.571 47.3182 237.662 47.179 237.725 47.0142L239.404 47.125C239.319 47.5284 239.144 47.8807 238.88 48.1818C238.618 48.4801 238.28 48.7131 237.865 48.8807C237.453 49.0455 236.978 49.1278 236.438 49.1278ZM243.584 49.1278C242.914 49.1278 242.337 48.9858 241.854 48.7017C241.374 48.4148 241.005 48.017 240.746 47.5085C240.49 47 240.363 46.4148 240.363 45.7528C240.363 45.0824 240.492 44.4943 240.75 43.9886C241.012 43.4801 241.382 43.0838 241.863 42.7997C242.343 42.5128 242.914 42.3693 243.576 42.3693C244.147 42.3693 244.647 42.473 245.076 42.6804C245.505 42.8878 245.844 43.179 246.094 43.554C246.344 43.929 246.482 44.3693 246.507 44.875H244.794C244.746 44.5483 244.618 44.2855 244.411 44.0866C244.206 43.8849 243.938 43.7841 243.605 43.7841C243.324 43.7841 243.078 43.8608 242.868 44.0142C242.661 44.1648 242.499 44.3849 242.382 44.6747C242.266 44.9645 242.208 45.3153 242.208 45.7273C242.208 46.1449 242.265 46.5 242.378 46.7926C242.495 47.0852 242.658 47.3082 242.868 47.4616C243.078 47.6151 243.324 47.6918 243.605 47.6918C243.813 47.6918 243.999 47.6491 244.164 47.5639C244.331 47.4787 244.469 47.3551 244.577 47.1932C244.688 47.0284 244.76 46.831 244.794 46.6009H246.507C246.479 47.1009 246.343 47.5412 246.098 47.9219C245.857 48.2997 245.523 48.5952 245.097 48.8082C244.671 49.0213 244.167 49.1278 243.584 49.1278Z" fill="#3E3E3E"/>
<rect x="208.5" y="29.5" width="76" height="31" rx="1.5" stroke="#DEDEDE"/>
</g>
<defs>
<clipPath id="clip0_202_705">
<rect width="306" height="398" fill="white"/>
</clipPath>
</defs>
</svg>
