<svg width="30" height="36" viewBox="0 0 30 36" fill="none" xmlns="http://www.w3.org/2000/svg">
<path d="M28.257 12.2736C28.049 12.4356 24.3775 14.5131 24.3775 19.1323C24.3775 24.4752 29.0494 26.3654 29.1892 26.4122C29.1677 26.5275 28.447 29.0009 26.726 31.5212C25.1914 33.739 23.5887 35.9532 21.1506 35.9532C18.7125 35.9532 18.085 34.5311 15.2705 34.5311C12.5276 34.5311 11.5523 36 9.32218 36C7.09203 36 5.53594 33.9478 3.7468 31.4275C1.67441 28.4681 0 23.8704 0 19.5068C0 12.5077 4.53202 8.79568 8.99232 8.79568C11.3623 8.79568 13.3379 10.3582 14.8259 10.3582C16.2421 10.3582 18.4508 8.70207 21.147 8.70207C22.1689 8.70207 25.8404 8.79568 28.257 12.2736ZM19.867 5.73897C20.9821 4.41044 21.7709 2.56706 21.7709 0.723672C21.7709 0.468047 21.7494 0.208821 21.7028 0C19.8885 0.0684068 17.7301 1.21332 16.4286 2.72907C15.4067 3.89559 14.453 5.73897 14.453 7.60756C14.453 7.88839 14.4996 8.16922 14.5211 8.25923C14.6358 8.28083 14.8223 8.30603 15.0087 8.30603C16.6365 8.30603 18.6838 7.21152 19.867 5.73897Z" fill="black"/>
</svg>
