<svg width="206" height="40" viewBox="0 0 206 40" fill="none" xmlns="http://www.w3.org/2000/svg">
<path fill-rule="evenodd" clip-rule="evenodd" d="M12.3448 7.62598C5.41442 8.47181 0 14.4185 0 21.5675C0 26.4727 2.5541 30.804 6.39113 33.3169L5.3024 36.0799C4.89927 37.1039 5.40244 38.2662 6.42938 38.6693L9.45428 39.8611C10.4783 40.2642 11.6406 39.761 12.0437 38.7341L13.2913 35.5709C14.4065 35.6297 27.6713 35.6297 28.7836 35.5709L30.0312 38.7341C30.4344 39.761 31.5937 40.2642 32.6206 39.8611L35.6455 38.6693C36.6725 38.2662 37.1756 37.1069 36.7725 36.0799L35.6838 33.3169C38.0937 31.7397 39.9916 29.4446 41.0715 26.7375C43.1519 26.9876 44.7703 25.3663 44.7703 23.4742V19.6608C44.7703 17.7628 43.146 16.1474 41.0715 16.3975C40.3947 14.7085 39.4031 13.1813 38.1643 11.8866V4.61865C35.5014 4.61865 33.1621 5.98986 31.8026 8.05844C30.9702 7.82439 30.1097 7.65932 29.2258 7.57978C28.8926 11.9511 25.2401 15.3942 20.7835 15.3942C16.3426 15.3942 12.7001 11.9753 12.3448 7.62598ZM33.7491 16.7446C33.7491 17.7304 34.5495 18.5307 35.5352 18.5307C36.5209 18.5307 37.3213 17.7304 37.3213 16.7446C37.3213 15.7589 36.5209 14.9585 35.5352 14.9585C34.5495 14.9585 33.7491 15.7589 33.7491 16.7446Z" fill="#2C91FD"/>
<path d="M20.7831 0.0001688C24.6092 0.0001688 27.7108 3.10178 27.7108 6.92782C27.7108 10.7539 24.6092 13.8555 20.7831 13.8555C16.9571 13.8555 13.8555 10.7539 13.8555 6.92782C13.8555 3.10178 16.9571 0.0001688 20.7831 0.0001688Z" fill="#28CCFF"/>
<path d="M78.3479 8.39444C79.8933 8.39444 81.1461 9.64721 81.1461 11.1926C81.1461 12.738 79.8933 13.9907 78.3479 13.9907C76.8026 13.9907 75.5498 12.738 75.5498 11.1926C75.5498 9.64721 76.8026 8.39444 78.3479 8.39444Z" fill="#28CCFF"/>
<path d="M58.2793 10.0172C58.2793 8.786 58.8949 8.17041 60.1261 8.17041H71.1396C72.3707 8.17041 72.9863 8.786 72.9863 10.0172V11.3603C72.9863 12.5915 72.3707 13.2071 71.1396 13.2071H64.1554V18.2437H69.6286C70.8597 18.2437 71.4753 18.8593 71.4753 20.0905V21.4336C71.4753 22.6648 70.8597 23.2804 69.6286 23.2804H64.1554V30.3317C64.1554 31.5629 63.5398 32.1785 62.3086 32.1785H60.1261C58.8949 32.1785 58.2793 31.5629 58.2793 30.3317V10.0172Z" fill="#000759"/>
<path d="M84.8413 16.7327C84.8413 15.5015 85.4569 14.8859 86.6881 14.8859H88.5685C89.7773 14.8859 90.3817 15.5015 90.3817 16.7327V17.0349C90.3817 17.0797 90.3705 17.1245 90.3481 17.1692C90.3481 17.214 90.3481 17.2588 90.3481 17.3035V17.4714H90.4152C90.6167 17.1357 90.8741 16.7887 91.1875 16.4305C91.5009 16.0724 91.8815 15.759 92.3292 15.4903C92.7769 15.1993 93.2917 14.9643 93.8737 14.7852C94.4781 14.5837 95.1609 14.483 95.922 14.483C96.795 14.483 97.6121 14.5949 98.3732 14.8188C99.1342 15.0426 99.7834 15.412 100.321 15.9269C100.88 16.4193 101.317 17.0797 101.63 17.9079C101.966 18.7362 102.134 19.7547 102.134 20.9635V30.3317C102.134 31.5629 101.518 32.1785 100.287 32.1785H98.1717C96.9405 32.1785 96.3249 31.5629 96.3249 30.3317V22.038C96.3249 21.2321 96.1682 20.6501 95.8548 20.292C95.5414 19.9338 95.0602 19.7547 94.411 19.7547C93.7618 19.7547 93.2022 19.8778 92.7321 20.1241C92.262 20.3703 91.8703 20.7061 91.5569 21.1314C91.2435 21.5567 91.0084 22.0492 90.8517 22.6088C90.7174 23.1684 90.6503 23.7505 90.6503 24.3549V30.3317C90.6503 31.5629 90.0347 32.1785 88.8035 32.1785H86.6881C85.4569 32.1785 84.8413 31.5629 84.8413 30.3317V16.7327Z" fill="#000759"/>
<path d="M105.981 10.0172C105.981 8.786 106.596 8.17041 107.827 8.17041H114.812C116.02 8.17041 117.117 8.30472 118.102 8.57334C119.109 8.84196 119.971 9.2449 120.688 9.78214C121.404 10.297 121.964 10.9462 122.367 11.7296C122.769 12.5131 122.971 13.4197 122.971 14.4494C122.971 15.4568 122.736 16.4305 122.266 17.3707C121.796 18.3109 121.102 19.0384 120.184 19.5532V19.6204C120.878 19.8219 121.46 20.1241 121.93 20.527C122.4 20.9075 122.781 21.3441 123.072 21.8365C123.385 22.329 123.609 22.8551 123.743 23.4147C123.878 23.9519 123.945 24.4892 123.945 25.0264C123.945 26.3471 123.687 27.4664 123.172 28.3842C122.68 29.2796 122.008 30.0071 121.158 30.5667C120.329 31.1264 119.356 31.5405 118.236 31.8091C117.14 32.0553 115.998 32.1785 114.812 32.1785H107.827C106.596 32.1785 105.981 31.5629 105.981 30.3317V10.0172ZM114.879 17.4714C115.617 17.4714 116.155 17.2476 116.49 16.7999C116.826 16.3522 116.994 15.8373 116.994 15.2553C116.994 14.6957 116.815 14.2144 116.457 13.8115C116.121 13.4085 115.561 13.2071 114.778 13.2071H111.857V17.4714H114.879ZM115.382 27.1418C116.233 27.1418 116.871 26.8956 117.296 26.4031C117.722 25.8882 117.934 25.295 117.934 24.6235C117.934 23.9519 117.722 23.3811 117.296 22.911C116.893 22.4185 116.267 22.1723 115.416 22.1723H111.857V27.1418H115.382Z" fill="#000759"/>
<path d="M126.497 16.7327C126.497 15.5015 127.112 14.8859 128.343 14.8859H130.459C131.69 14.8859 132.305 15.5015 132.305 16.7327V25.0264C132.305 25.8323 132.462 26.4143 132.776 26.7725C133.089 27.1306 133.548 27.3097 134.152 27.3097C134.779 27.3097 135.316 27.1866 135.764 26.9403C136.234 26.6717 136.615 26.3247 136.906 25.8994C137.219 25.4517 137.443 24.9481 137.577 24.3884C137.734 23.8064 137.812 23.1908 137.812 22.5417V16.7327C137.812 15.5015 138.428 14.8859 139.659 14.8859H141.774C143.006 14.8859 143.621 15.5015 143.621 16.7327V30.3317C143.621 31.5629 143.006 32.1785 141.774 32.1785H139.894C138.685 32.1785 138.081 31.5629 138.081 30.3317V30.0295V29.7609C138.081 29.6937 138.092 29.6377 138.114 29.593H138.047C137.577 30.5332 136.85 31.2719 135.865 31.8091C134.88 32.324 133.805 32.5814 132.641 32.5814C131.791 32.5814 130.985 32.4695 130.224 32.2456C129.485 32.0218 128.836 31.6636 128.276 31.1711C127.717 30.6563 127.28 29.9847 126.967 29.1565C126.653 28.3282 126.497 27.3097 126.497 26.1009V16.7327Z" fill="#000759"/>
<path d="M146.49 23.5154C146.49 22.1499 146.681 20.9187 147.061 19.8219C147.464 18.7026 148.012 17.7512 148.706 16.9678C149.4 16.1619 150.229 15.5463 151.191 15.121C152.176 14.6957 153.239 14.483 154.381 14.483C155.254 14.483 155.97 14.5726 156.53 14.7516C157.112 14.9307 157.582 15.1322 157.94 15.356C158.343 15.6023 158.668 15.8821 158.914 16.1955H158.981C158.959 16.1283 158.948 16.05 158.948 15.9604V15.4232V10.0172C158.948 8.786 159.563 8.17041 160.794 8.17041H162.91C164.141 8.17041 164.757 8.786 164.757 10.0172V30.3317C164.757 31.5629 164.141 32.1785 162.91 32.1785H161.164C159.933 32.1785 159.317 31.6188 159.317 30.4996V30.2981V30.1638C159.317 30.1414 159.328 30.1078 159.35 30.0631H159.283C158.97 30.5332 158.578 30.9585 158.108 31.339C157.705 31.6524 157.19 31.9322 156.564 32.1785C155.937 32.4471 155.176 32.5814 154.28 32.5814C153.094 32.5814 152.019 32.3687 151.057 31.9434C150.117 31.4957 149.3 30.8689 148.606 30.0631C147.934 29.2572 147.408 28.3058 147.027 27.209C146.669 26.0897 146.49 24.8585 146.49 23.5154ZM152.333 23.5154C152.333 24.8138 152.646 25.8547 153.273 26.6381C153.9 27.3992 154.717 27.7798 155.724 27.7798C156.149 27.7798 156.564 27.7014 156.966 27.5447C157.392 27.3657 157.761 27.1082 158.075 26.7725C158.388 26.4143 158.634 25.9666 158.813 25.4293C159.015 24.8921 159.115 24.2541 159.115 23.5154C159.115 23.0006 159.048 22.4969 158.914 22.0044C158.78 21.5119 158.567 21.0754 158.276 20.6949C157.985 20.292 157.627 19.9786 157.202 19.7547C156.776 19.5085 156.284 19.3854 155.724 19.3854C154.806 19.3854 154.012 19.7435 153.34 20.4598C152.669 21.1538 152.333 22.1723 152.333 23.5154Z" fill="#000759"/>
<path d="M167.648 23.5154C167.648 22.1499 167.838 20.9187 168.219 19.8219C168.622 18.7026 169.17 17.7512 169.864 16.9678C170.558 16.1619 171.386 15.5463 172.349 15.121C173.334 14.6957 174.397 14.483 175.539 14.483C176.412 14.483 177.128 14.5726 177.688 14.7516C178.27 14.9307 178.74 15.1322 179.098 15.356C179.501 15.6023 179.826 15.8821 180.072 16.1955H180.139C180.117 16.1283 180.105 16.05 180.105 15.9604V15.4232V10.0172C180.105 8.786 180.721 8.17041 181.952 8.17041H184.068C185.299 8.17041 185.914 8.786 185.914 10.0172V30.3317C185.914 31.5629 185.299 32.1785 184.068 32.1785H182.322C181.09 32.1785 180.475 31.6188 180.475 30.4996V30.2981V30.1638C180.475 30.1414 180.486 30.1078 180.508 30.0631H180.441C180.128 30.5332 179.736 30.9585 179.266 31.339C178.863 31.6524 178.348 31.9322 177.721 32.1785C177.095 32.4471 176.334 32.5814 175.438 32.5814C174.252 32.5814 173.177 32.3687 172.215 31.9434C171.275 31.4957 170.457 30.8689 169.764 30.0631C169.092 29.2572 168.566 28.3058 168.185 27.209C167.827 26.0897 167.648 24.8585 167.648 23.5154ZM173.491 23.5154C173.491 24.8138 173.804 25.8547 174.431 26.6381C175.058 27.3992 175.875 27.7798 176.882 27.7798C177.307 27.7798 177.721 27.7014 178.124 27.5447C178.55 27.3657 178.919 27.1082 179.232 26.7725C179.546 26.4143 179.792 25.9666 179.971 25.4293C180.173 24.8921 180.273 24.2541 180.273 23.5154C180.273 23.0006 180.206 22.4969 180.072 22.0044C179.938 21.5119 179.725 21.0754 179.434 20.6949C179.143 20.292 178.785 19.9786 178.359 19.7547C177.934 19.5085 177.442 19.3854 176.882 19.3854C175.964 19.3854 175.17 19.7435 174.498 20.4598C173.826 21.1538 173.491 22.1723 173.491 23.5154Z" fill="#000759"/>
<path d="M189.007 35.4019C189.254 34.8871 189.534 34.5625 189.847 34.4282C190.183 34.2939 190.53 34.2603 190.888 34.3274C191.022 34.3722 191.168 34.4058 191.324 34.4282C191.503 34.4729 191.694 34.4953 191.895 34.4953C192.41 34.4953 192.88 34.3162 193.305 33.9581C193.753 33.5999 194.078 33.1634 194.279 32.6485L194.615 31.8427L188.202 17.0349C187.911 16.3858 187.888 15.8709 188.134 15.4903C188.403 15.0874 188.896 14.8859 189.612 14.8859H192.231C193.305 14.8859 194.011 15.3896 194.346 16.3969L196.395 22.8439C196.462 23.0901 196.529 23.3699 196.596 23.6833C196.686 23.9967 196.764 24.2877 196.831 24.5563C196.921 24.8921 196.988 25.2167 197.033 25.5301H197.1C197.167 25.2167 197.234 24.9033 197.301 24.5899C197.346 24.3213 197.402 24.0415 197.469 23.7505C197.536 23.4595 197.603 23.1908 197.671 22.9446L199.417 16.4641C199.708 15.412 200.401 14.8859 201.498 14.8859H203.95C204.621 14.8859 205.091 15.0762 205.36 15.4568C205.651 15.8373 205.673 16.3522 205.427 17.0013L199.114 34.0252C198.756 34.9878 198.308 35.7937 197.771 36.4428C197.234 37.1144 196.641 37.6516 195.992 38.0546C195.365 38.4799 194.693 38.7821 193.977 38.9612C193.283 39.1402 192.589 39.2298 191.895 39.2298C191.447 39.2298 191.011 39.185 190.586 39.0955C190.183 39.0059 189.813 38.9052 189.478 38.7933C188.918 38.6142 188.56 38.3008 188.403 37.8531C188.269 37.4054 188.325 36.9129 188.571 36.3757L189.007 35.4019Z" fill="#000759"/>
<path d="M75.5498 16.7325C75.5498 15.5013 76.1654 14.8857 77.3966 14.8857H79.512C80.7432 14.8857 81.3587 15.5013 81.3587 16.7325V30.3315C81.3587 31.5627 80.7432 32.1783 79.512 32.1783H77.3966C76.1654 32.1783 75.5498 31.5627 75.5498 30.3315V16.7325Z" fill="#000759"/>
</svg>
