<svg width="36" height="36" viewBox="0 0 36 36" fill="none" xmlns="http://www.w3.org/2000/svg">
<path d="M20.7344 13.0312L22.8828 9.86719C22.9219 9.75 22.9609 9.59375 22.9609 9.4375C22.9609 8.92969 22.5703 8.53906 22.0625 8.5H13.9375H13.8984C13.3906 8.5 12.9609 8.92969 12.9609 9.4375C12.9609 9.59375 13.0391 9.75 13.0781 9.86719L15.2656 13.0312C7.60938 17.7188 8 23.8516 8 24.5938C8 26.7812 9.91406 28.5 12.2578 28.5H23.7031C26.0469 28.5 27.9609 26.7812 27.9609 24.5938C27.9609 23.8516 28.3125 17.6797 20.7344 13.0312ZM20.2656 10.375L18.7812 12.5625H17.1797L15.6953 10.375H20.2656ZM26.0859 24.5938C26.0859 25.7266 25.0312 26.625 23.7031 26.625H12.2578C10.9297 26.625 9.875 25.7266 9.875 24.5938C9.83594 21.4297 11.125 17.7578 16.5547 14.4375H19.4453C24.7969 17.7578 26.125 21.4297 26.0859 24.5938ZM19.1328 20.6484L17.2188 20.1016C16.9844 20.0234 16.8672 19.7891 16.8672 19.5547C16.8672 19.2422 17.0625 19.0078 17.3359 19.0078H18.5469C18.7031 19.0078 18.9375 19.0859 19.0938 19.1641C19.1328 19.2031 19.2109 19.2031 19.2891 19.2031C19.3672 19.2031 19.4453 19.1641 19.5234 19.125L20.0312 18.6562C20.0703 18.5781 20.1094 18.5 20.1094 18.4219C20.1094 18.3047 20.0703 18.1875 19.9922 18.1484C19.6797 17.9141 19.0547 17.6797 18.6641 17.6797V16.9766C18.6641 16.7812 18.5078 16.625 18.3125 16.625H17.6484C17.4531 16.625 17.2969 16.7812 17.2969 16.9766V17.6797C16.2812 17.6797 15.5 18.5391 15.5 19.5547C15.5 20.4141 16.0469 21.1562 16.8281 21.3906L18.7422 21.9375C18.9766 22.0156 19.0938 22.25 19.0938 22.4844C19.0938 22.7969 18.8984 23.0312 18.625 23.0312H17.4141C17.2578 23.0312 17.0234 22.9531 16.8672 22.875C16.8281 22.8359 16.75 22.8359 16.6719 22.8359C16.5938 22.8359 16.4766 22.875 16.4375 22.9141L15.9297 23.3828C15.8906 23.4609 15.8516 23.5391 15.8516 23.6172C15.8516 23.7344 15.8906 23.8516 15.9688 23.8906C16.2812 24.125 16.9062 24.3594 17.2969 24.3594V25.0625C17.2969 25.2578 17.4531 25.375 17.6484 25.375H18.3125C18.5078 25.375 18.6641 25.2578 18.6641 25.0625V24.3594C19.6797 24.3594 20.4609 23.5 20.4609 22.4844C20.5 21.625 19.9141 20.8828 19.1328 20.6484Z" fill="#4B4B4B"/>
</svg>
