<svg width="36" height="36" viewBox="0 0 36 36" fill="none" xmlns="http://www.w3.org/2000/svg">
<path d="M23.4688 22.25H24.3672C24.6016 22.25 24.875 22.0156 24.875 21.7812V12.7578C24.875 12.5234 24.6016 12.25 24.3672 12.25H23.4688C23.2344 12.25 23 12.5234 23 12.7578V21.7812C23 22.0156 23.2344 22.25 23.4688 22.25ZM15.9688 22.25H16.8672C17.1016 22.25 17.375 22.0156 17.375 21.7812V14.0078C17.375 13.7734 17.1016 13.5 16.8672 13.5H15.9688C15.7344 13.5 15.5 13.7734 15.5 14.0078V21.7812C15.5 22.0156 15.7344 22.25 15.9688 22.25ZM19.7188 22.25H20.6172C20.8516 22.25 21.125 22.0156 21.125 21.7812V16.5078C21.125 16.2734 20.8516 16 20.6172 16H19.7188C19.4844 16 19.25 16.2734 19.25 16.5078V21.7812C19.25 22.0156 19.4844 22.25 19.7188 22.25ZM27.375 24.125H9.875V11.625C9.875 11.3125 9.5625 11 9.25 11H8.625C8.27344 11 8 11.3125 8 11.625V24.75C8 25.4531 8.54688 26 9.25 26H27.375C27.6875 26 28 25.7266 28 25.375V24.75C28 24.4375 27.6875 24.125 27.375 24.125ZM12.2188 22.25H13.1172C13.3516 22.25 13.625 22.0156 13.625 21.7812V19.0078C13.625 18.7734 13.3516 18.5 13.1172 18.5H12.2188C11.9844 18.5 11.75 18.7734 11.75 19.0078V21.7812C11.75 22.0156 11.9844 22.25 12.2188 22.25Z" fill="#4B4B4B"/>
</svg>
