<svg width="36" height="36" viewBox="0 0 36 36" fill="none" xmlns="http://www.w3.org/2000/svg">
<rect width="36" height="36" rx="4" fill="#F0F0F0"/>
<path d="M22.25 21C22.25 21.7031 22.7969 22.25 23.5 22.25C24.1641 22.25 24.75 21.7031 24.75 21C24.75 20.3359 24.1641 19.75 23.5 19.75C22.7969 19.75 22.25 20.3359 22.25 21ZM14.75 22.25C14.75 22.7188 14.8672 23.1484 15.0625 23.5H19.3984C19.5938 23.1484 19.75 22.7188 19.75 22.25C19.75 21.8203 19.5938 21.3906 19.3984 21.0391L22.3281 17.2109C22.6797 16.8203 22.6016 16.2344 22.1719 15.9219C21.7812 15.5703 21.1953 15.6484 20.8828 16.0781L17.9141 19.8672C17.6797 19.8281 17.4844 19.75 17.25 19.75C15.8438 19.75 14.75 20.8828 14.75 22.25ZM18.5 14.75C18.5 14.0859 17.9141 13.5 17.25 13.5C16.5469 13.5 16 14.0859 16 14.75C16 15.4531 16.5469 16 17.25 16C17.9141 16 18.5 15.4531 18.5 14.75ZM11 19.75C10.2969 19.75 9.75 20.3359 9.75 21C9.75 21.7031 10.2969 22.25 11 22.25C11.6641 22.25 12.25 21.7031 12.25 21C12.25 20.3359 11.6641 19.75 11 19.75ZM12.875 17.875C13.5391 17.875 14.125 17.3281 14.125 16.625C14.125 15.9609 13.5391 15.375 12.875 15.375C12.1719 15.375 11.625 15.9609 11.625 16.625C11.625 17.3281 12.1719 17.875 12.875 17.875ZM6 21C6 23.0703 6.54688 25.0234 7.52344 26.6641C7.71875 27.0547 8.14844 27.25 8.57812 27.25H25.8828C26.3125 27.25 26.7422 27.0547 26.9375 26.6641C27.9141 25.0234 28.5 23.0703 28.5 21C28.5 14.7891 23.4609 9.75 17.25 9.75C11 9.75 6 14.7891 6 21ZM7.875 21C7.875 15.8438 12.0547 11.625 17.25 11.625C22.4062 11.625 26.625 15.8438 26.625 21C26.625 22.5625 26.2344 24.0469 25.5312 25.375H8.92969C8.22656 24.0469 7.875 22.5625 7.875 21Z" fill="#02ADEE"/>
</svg>
