<svg width="42" height="38" viewBox="0 0 42 38" fill="none" xmlns="http://www.w3.org/2000/svg">
<path fill-rule="evenodd" clip-rule="evenodd" d="M11.5809 7.15426C5.07937 7.94777 0 13.5265 0 20.2331C0 24.8347 2.39606 28.8981 5.99566 31.2555L4.9743 33.8476C4.59612 34.8082 5.06815 35.8986 6.03155 36.2767L8.86927 37.3947C9.8299 37.7729 10.9203 37.3009 11.2985 36.3375L12.4689 33.37C13.5151 33.4252 25.9591 33.4252 27.0026 33.37L28.173 36.3375C28.5512 37.3009 29.6388 37.7729 30.6022 37.3947L33.4399 36.2767C34.4033 35.8986 34.8753 34.811 34.4971 33.8476L33.4758 31.2555C35.7366 29.7759 37.5171 27.6228 38.5301 25.0832C40.4818 25.3178 42 23.7968 42 22.0219V18.4443C42 16.6639 40.4762 15.1484 38.5301 15.383C37.8952 13.7985 36.965 12.3659 35.8028 11.1513V4.33301C33.3046 4.33301 31.1101 5.61937 29.8348 7.55996C29.0539 7.34039 28.2466 7.18553 27.4174 7.1109C27.1049 11.2118 23.6784 14.442 19.4974 14.442C15.3312 14.442 11.9142 11.2345 11.5809 7.15426ZM31.6608 15.7088C31.6608 16.6335 32.4116 17.3844 33.3364 17.3844C34.2611 17.3844 35.012 16.6335 35.012 15.7088C35.012 14.784 34.2611 14.0332 33.3364 14.0332C32.4116 14.0332 31.6608 14.784 31.6608 15.7088Z" fill="#2C91FD"/>
<path d="M19.497 7.15256e-05C23.0863 7.15256e-05 25.996 2.90977 25.996 6.49906C25.996 10.0884 23.0863 12.998 19.497 12.998C15.9077 12.998 12.998 10.0884 12.998 6.49906C12.998 2.90977 15.9077 7.15256e-05 19.497 7.15256e-05Z" fill="#28CCFF"/>
</svg>
