<svg width="36" height="36" viewBox="0 0 36 36" fill="none" xmlns="http://www.w3.org/2000/svg">
<path d="M16.4062 23.5H14.6875V10.375C14.6875 10.0625 14.375 9.75 14.0625 9.75H13.4375C13.0859 9.75 12.8125 10.0625 12.8125 10.375V23.5H11.0938H11.0547C10.8203 23.5 10.5859 23.7344 10.5859 23.9688C10.5859 24.0859 10.6641 24.2422 10.7422 24.3203L13.3984 27.1328C13.4766 27.2109 13.6328 27.25 13.7109 27.25C13.8281 27.25 13.9844 27.2109 14.0625 27.1328L16.7188 24.3203C16.7969 24.2422 16.8359 24.0859 16.8359 23.9688C16.8359 23.7344 16.6406 23.5391 16.4062 23.5ZM24.2188 12.7188L21.5625 9.90625C21.4844 9.82812 21.3281 9.78906 21.25 9.78906C21.1328 9.78906 20.9766 9.82812 20.8984 9.90625L18.2422 12.7188C18.1641 12.7969 18.125 12.9531 18.125 13.0312C18.125 13.3047 18.3203 13.5 18.5938 13.5H20.3125V26.625C20.3125 26.9766 20.5859 27.25 20.9375 27.25H21.5625C21.875 27.25 22.1875 26.9766 22.1875 26.625V13.5H23.9062C24.1406 13.5 24.3359 13.3047 24.3359 13.0312C24.3359 12.9531 24.2969 12.7969 24.2188 12.7188Z" fill="#4B4B4B"/>
</svg>
