<svg width="588" height="554" viewBox="0 0 588 554" fill="none" xmlns="http://www.w3.org/2000/svg">
<g clip-path="url(#clip0_2905_573)">
<path d="M175.728 503.529C147.193 500.086 58.476 478.008 54.9942 429.283C51.5125 380.558 99.1048 352.71 102.587 335.313C106.068 317.915 59.3062 280.409 84.9671 226.483C112.871 167.84 201.265 152.002 250.023 172.892C298.78 193.768 391.3 150.417 437.74 204.95C484.18 259.482 441.581 320.231 456.673 348.079C471.765 375.927 512.604 435.066 460.428 488.348C410.741 539.079 243.059 511.664 175.728 503.541V503.529Z" fill="#96E9FF"/>
<path d="M250.022 193.942C326.237 208.962 455.508 148.498 459.721 278.489C461.468 255.074 458.544 229.38 437.728 204.95C391.288 150.417 298.767 193.781 250.01 172.892C201.253 152.015 112.858 167.84 84.9546 226.483C77.3839 242.394 76.1201 256.882 78.0035 269.834C94.8547 170.031 181.564 180.445 250.01 193.942H250.022Z" fill="#82DCF2"/>
<path d="M517.099 337.957C525.675 326.776 524.768 311.692 515.073 304.266C505.378 296.84 490.567 299.884 481.991 311.065C473.415 322.246 474.322 337.33 484.017 344.756C493.712 352.182 508.523 349.138 517.099 337.957Z" fill="#7E69CC"/>
<path d="M68.7144 334.394C70.4039 327.394 66.0949 320.35 59.0899 318.662C52.085 316.974 45.0367 321.28 43.3472 328.28C41.6577 335.281 45.9667 342.324 52.9717 344.013C59.9767 345.701 67.0249 341.395 68.7144 334.394Z" fill="#6B9466"/>
<path d="M54.3375 271.815C59.3467 271.815 63.4074 267.757 63.4074 262.751C63.4074 257.746 59.3467 253.688 54.3375 253.688C49.3283 253.688 45.2676 257.746 45.2676 262.751C45.2676 267.757 49.3283 271.815 54.3375 271.815Z" fill="#41C9E0"/>
<path d="M169.558 298.351C168.901 298.252 168.244 298.19 167.575 298.128C167.439 298.128 167.303 298.103 167.179 298.103C166.497 298.054 165.816 298.029 165.122 298.029C161.405 298.029 157.836 298.685 154.528 299.899C152.174 300.765 149.943 301.905 147.899 303.291C147.49 303.564 147.081 303.849 146.697 304.146C146.301 304.443 145.916 304.74 145.532 305.062C145.148 305.384 144.777 305.694 144.417 306.028C143.327 307.018 142.298 308.096 141.357 309.235C140.725 309.99 140.142 310.783 139.585 311.6C137.925 314.052 136.611 316.764 135.707 319.661C134.802 322.559 134.319 325.629 134.319 328.812C134.319 329.344 134.331 329.864 134.356 330.384C134.368 330.669 134.393 330.941 134.418 331.214C134.443 331.449 134.443 331.697 134.468 331.932C134.505 332.316 134.554 332.7 134.616 333.084C134.629 333.207 134.641 333.344 134.666 333.467C134.74 333.926 134.814 334.371 134.901 334.817C134.901 334.867 134.914 334.929 134.926 334.978C137.788 349.02 150.204 359.595 165.11 359.595C182.122 359.595 195.913 345.813 195.913 328.812C195.913 313.321 184.464 300.518 169.558 298.351Z" fill="#82DCF2"/>
<path d="M219.666 186.042C219.133 185.967 218.6 185.906 218.067 185.868C217.956 185.868 217.856 185.856 217.745 185.844C217.2 185.807 216.642 185.782 216.085 185.782C213.074 185.782 210.199 186.314 207.523 187.292C205.615 187.986 203.818 188.915 202.17 190.029C201.835 190.252 201.513 190.487 201.191 190.722C200.869 190.958 200.559 191.205 200.249 191.465C199.94 191.713 199.642 191.985 199.345 192.245C198.465 193.05 197.635 193.917 196.879 194.833C196.371 195.452 195.888 196.084 195.442 196.753C194.104 198.734 193.038 200.926 192.307 203.266C191.576 205.606 191.192 208.083 191.192 210.658C191.192 211.092 191.192 211.513 191.229 211.934C191.229 212.156 191.266 212.379 191.279 212.602C191.291 212.8 191.303 212.998 191.328 213.184C191.365 213.494 191.403 213.803 191.44 214.113C191.452 214.212 191.464 214.323 191.477 214.422C191.526 214.794 191.601 215.153 191.675 215.512C191.675 215.549 191.688 215.599 191.7 215.636C194.005 226.991 204.053 235.535 216.097 235.535C229.838 235.535 240.99 224.403 240.99 210.658C240.99 198.139 231.734 187.788 219.69 186.042H219.666Z" fill="#82DCF2"/>
<path d="M195.53 315.876C198.206 299.087 186.756 283.309 169.956 280.635C153.156 277.96 137.367 289.403 134.691 306.192C132.015 322.981 143.465 338.76 160.266 341.434C177.066 344.108 192.854 332.665 195.53 315.876Z" fill="#FFC200"/>
<path d="M165.11 289.943C178.578 289.943 189.631 300.245 190.82 313.396C190.895 312.615 190.932 311.835 190.932 311.043C190.932 296.791 179.371 285.238 165.11 285.238C150.848 285.238 139.288 296.791 139.288 311.043C139.288 311.835 139.325 312.615 139.399 313.396C140.589 300.245 151.641 289.943 165.11 289.943Z" fill="#FFA100"/>
<path d="M165.11 285.758C179.062 285.758 190.411 297.1 190.411 311.043C190.411 324.986 179.062 336.328 165.11 336.328C151.158 336.328 139.808 324.986 139.808 311.043C139.808 297.1 151.158 285.758 165.11 285.758ZM165.11 280.272C148.097 280.272 134.307 294.054 134.307 311.055C134.307 328.056 148.097 341.838 165.11 341.838C182.122 341.838 195.913 328.056 195.913 311.055C195.913 294.054 182.122 280.272 165.11 280.272Z" fill="#FFE450"/>
<path d="M165.11 285.758V280.272C148.097 280.272 134.307 294.054 134.307 311.055H139.796C139.796 297.113 151.145 285.77 165.097 285.77L165.11 285.758Z" fill="#FAF582"/>
<g style="mix-blend-mode:lighten" opacity="0.2">
<path d="M165.11 280.272C148.097 280.272 134.307 294.054 134.307 311.055C134.307 315.278 135.162 319.302 136.698 322.955C138.879 323.463 141.134 323.747 143.476 323.747C159.757 323.747 172.941 310.56 172.941 294.302C172.941 289.349 171.714 284.693 169.558 280.607C168.108 280.396 166.621 280.285 165.11 280.285V280.272Z" fill="white"/>
</g>
<path d="M239.343 205.753C241.345 193.35 232.906 181.675 220.496 179.675C208.085 177.675 196.402 186.108 194.401 198.511C192.4 210.913 200.838 222.588 213.249 224.588C225.659 226.588 237.342 218.155 239.343 205.753Z" fill="#FFC200"/>
<path d="M216.89 186.549C226.84 186.549 235.018 194.165 235.897 203.885C235.947 203.315 235.984 202.733 235.984 202.151C235.984 191.614 227.434 183.07 216.89 183.07C206.346 183.07 197.796 191.614 197.796 202.151C197.796 202.733 197.821 203.315 197.883 203.885C198.763 194.165 206.928 186.549 216.89 186.549Z" fill="#FFA100"/>
<path d="M216.89 183.454C227.199 183.454 235.6 191.837 235.6 202.152C235.6 212.466 227.211 220.849 216.89 220.849C206.569 220.849 198.18 212.466 198.18 202.152C198.18 191.837 206.569 183.454 216.89 183.454ZM216.89 179.393C204.313 179.393 194.128 189.583 194.128 202.139C194.128 214.695 204.326 224.886 216.89 224.886C229.454 224.886 239.652 214.695 239.652 202.139C239.652 189.583 229.454 179.393 216.89 179.393Z" fill="#FFE450"/>
<path d="M216.89 183.454V179.393C204.313 179.393 194.128 189.583 194.128 202.139H198.193C198.193 191.837 206.581 183.442 216.902 183.442L216.89 183.454Z" fill="#FAF582"/>
<g style="mix-blend-mode:lighten" opacity="0.2">
<path d="M216.89 179.393C204.313 179.393 194.128 189.583 194.128 202.139C194.128 205.26 194.76 208.231 195.9 210.943C197.511 211.327 199.184 211.525 200.906 211.525C212.937 211.525 222.689 201.78 222.689 189.757C222.689 186.104 221.784 182.649 220.186 179.628C219.108 179.467 218.018 179.393 216.89 179.393Z" fill="white"/>
</g>
<path d="M95.3008 441.269V507.578L276.514 419.637V353.329L95.3008 441.269Z" fill="#00CCFF"/>
<path d="M397.656 243.893H342.877V367.049H397.656V243.893Z" fill="#00BFEA"/>
<path d="M430.665 201.037L342.927 243.62V309.929L430.665 267.358V201.037Z" fill="#00CCFF"/>
<path d="M349.457 322.1C335.852 331.994 345.889 339.225 354.426 350.939C362.963 362.653 366.754 374.429 380.359 364.535C393.964 354.641 402.799 333.69 394.274 321.964C385.737 310.25 363.074 312.194 349.469 322.088L349.457 322.1Z" fill="#32AE95"/>
<path d="M359.357 327.895C351.192 333.827 357.214 338.161 362.331 345.194C367.448 352.227 369.716 359.285 377.881 353.341C386.046 347.41 391.337 334.842 386.22 327.821C381.103 320.788 367.51 321.964 359.357 327.895Z" fill="#169584"/>
<path d="M357.042 537.164C358.069 524.047 311.077 509.677 252.085 505.068C193.092 500.459 144.437 507.357 143.411 520.475C142.385 533.592 189.376 547.962 248.369 552.571C307.361 557.18 356.016 550.282 357.042 537.164Z" fill="#BFE5EB"/>
<path d="M334.935 493.387C334.935 514.276 324.849 538.657 312.396 538.657C299.944 538.657 289.858 514.289 289.858 493.387C289.858 472.485 299.944 455.559 312.396 455.559C324.849 455.559 334.935 472.498 334.935 493.387Z" fill="#32AE95"/>
<path d="M308.258 501.411C308.258 522.3 298.172 546.681 285.72 546.681C273.267 546.681 263.181 522.313 263.181 501.411C263.181 480.509 273.267 463.583 285.72 463.583C298.172 463.583 308.258 480.522 308.258 501.411Z" fill="#4DC7A4"/>
<path d="M203.471 482.292C203.471 503.182 193.385 527.563 180.932 527.563C168.48 527.563 158.394 503.194 158.394 482.292C158.394 461.391 168.48 444.464 180.932 444.464C193.385 444.464 203.471 461.403 203.471 482.292Z" fill="#4DC7A4"/>
<path d="M233.828 483.085C233.828 503.974 223.742 528.355 211.289 528.355C198.837 528.355 188.751 503.986 188.751 483.085C188.751 462.183 198.837 445.256 211.289 445.256C223.742 445.256 233.828 462.196 233.828 483.085Z" fill="#32AE95"/>
<path d="M268.807 535.909C344.129 535.909 405.19 482.627 405.19 416.901C405.19 351.174 344.129 297.893 268.807 297.893C193.484 297.893 132.423 351.174 132.423 416.901C132.423 482.627 193.484 535.909 268.807 535.909Z" fill="#4DC7A4"/>
<path d="M327.984 318.67C307.564 308.034 275.56 299.403 250.047 299.403L240.036 304.641C265.412 304.641 297.293 313.197 317.638 323.735C321.603 321.531 323.945 320.738 327.984 318.67Z" fill="#169584"/>
<path d="M324.8 393.052H324.701C322.57 393.052 320.81 391.541 320.302 389.473C318.691 382.96 312.793 378.131 305.793 378.131C298.792 378.131 292.894 382.973 291.283 389.473C290.775 391.541 289.016 393.052 286.885 393.052H286.786C283.886 393.052 281.743 390.34 282.412 387.517C284.915 376.942 294.443 369.055 305.78 369.055C317.118 369.055 326.646 376.942 329.149 387.517C329.818 390.34 327.675 393.052 324.775 393.052H324.8Z" fill="#169584"/>
<path d="M274.89 322.1C288.495 331.994 278.459 339.225 269.922 350.939C261.384 362.653 257.593 374.429 243.988 364.535C230.383 354.641 221.549 333.69 230.073 321.964C238.611 310.25 261.273 312.194 274.878 322.088L274.89 322.1Z" fill="#32AE95"/>
<path d="M274.345 331.845C283.465 338.47 276.737 343.324 271.025 351.174C265.313 359.025 262.772 366.912 253.653 360.288C244.533 353.663 238.611 339.622 244.335 331.771C250.047 323.921 265.238 325.221 274.358 331.858L274.345 331.845Z" fill="#169584"/>
<path d="M300.217 449.788C300.217 449.788 300.44 442.322 308.58 445.034C316.721 447.745 317.873 481.153 363.322 480.299" stroke="#169584" stroke-width="3.37" stroke-miterlimit="10" stroke-linecap="round"/>
<path d="M439.915 431.152C443.115 396.937 421.953 366.981 392.648 364.244C363.344 361.507 336.993 387.024 333.793 421.24C330.593 455.455 351.755 485.41 381.059 488.148C410.364 490.885 436.714 465.367 439.915 431.152Z" fill="#32AE95"/>
<path d="M429.401 430.172C431.967 402.739 420.023 379.19 402.724 377.574C385.425 375.958 369.321 396.887 366.755 424.321C364.189 451.754 376.133 475.303 393.432 476.919C410.731 478.535 426.835 457.606 429.401 430.172Z" fill="#169584"/>
<path d="M391.858 421.024C390.941 430.893 387.546 438.644 384.3 438.334C381.053 438.025 379.158 429.791 380.087 419.922C381.004 410.053 384.399 402.301 387.645 402.611C390.891 402.921 392.787 411.155 391.858 421.024Z" fill="#295D5E"/>
<path d="M413.69 417.098C412.773 426.967 409.378 434.719 406.132 434.409C402.885 434.1 400.99 425.865 401.919 415.996C402.836 406.128 406.231 398.376 409.477 398.686C412.723 398.995 414.619 407.23 413.69 417.098Z" fill="#295D5E"/>
<mask id="mask0_2905_573" style="mask-type:luminance" maskUnits="userSpaceOnUse" x="240" y="198" width="121" height="126">
<path d="M360.361 242.023C339.941 231.386 275.56 198.709 250.047 198.709L240.036 304.641C265.412 304.641 297.293 313.197 317.638 323.735C321.603 321.531 356.322 244.091 360.361 242.023Z" fill="white"/>
</mask>
<g mask="url(#mask0_2905_573)">
<path d="M322.219 302.982C339.915 285.298 339.915 256.627 322.219 238.943C304.524 221.259 275.834 221.259 258.138 238.943C240.442 256.627 240.442 285.298 258.138 302.982C275.834 320.666 304.524 320.666 322.219 302.982Z" fill="#FFC200"/>
<path d="M290.168 239.918C309.981 239.918 326.25 255.074 327.997 274.415C328.096 273.276 328.158 272.124 328.158 270.948C328.158 249.985 311.145 232.983 290.168 232.983C269.191 232.983 252.178 249.985 252.178 270.948C252.178 272.112 252.24 273.264 252.34 274.415C254.087 255.074 270.355 239.918 290.168 239.918Z" fill="#FFA100"/>
<path d="M290.168 233.752C310.699 233.752 327.389 250.443 327.389 270.949C327.389 291.454 310.687 308.146 290.168 308.146C269.649 308.146 252.947 291.454 252.947 270.949C252.947 250.443 269.649 233.752 290.168 233.752ZM290.168 225.678C265.139 225.678 244.855 245.948 244.855 270.961C244.855 295.974 265.139 316.244 290.168 316.244C315.197 316.244 335.48 295.974 335.48 270.961C335.48 245.948 315.197 225.678 290.168 225.678Z" fill="#FFE450"/>
<path d="M290.168 233.752V225.678C265.139 225.678 244.855 245.948 244.855 270.961H252.934C252.934 250.443 269.637 233.764 290.156 233.764L290.168 233.752Z" fill="#FAF582"/>
<g style="mix-blend-mode:lighten" opacity="0.2">
<path d="M290.168 225.678C265.139 225.678 244.855 245.948 244.855 270.961C244.855 277.164 246.107 283.083 248.374 288.469C251.571 289.225 254.904 289.633 258.336 289.633C282.275 289.633 301.691 270.242 301.691 246.307C301.691 239.026 299.882 232.179 296.71 226.148C294.567 225.839 292.386 225.666 290.168 225.666V225.678Z" fill="white"/>
</g>
</g>
<path d="M504.278 211.376L405.958 187.168L434.135 284.371L504.278 211.376Z" fill="#00CCFF"/>
<path d="M277.554 189.397C282.312 212.156 302.484 229.244 326.671 229.244C350.857 229.244 371.029 212.156 375.787 189.397H277.554Z" fill="#82DCF2"/>
<path d="M362.478 193.669C377.064 173.347 372.402 145.057 352.067 130.481C331.732 115.905 303.422 120.563 288.837 140.885C274.251 161.207 278.912 189.497 299.248 204.073C319.583 218.649 347.892 213.991 362.478 193.669Z" fill="#FFC200"/>
<path d="M325.655 136.24C345.467 136.24 361.736 151.396 363.483 170.75C363.582 169.61 363.644 168.459 363.644 167.283C363.644 146.319 346.632 129.318 325.655 129.318C304.677 129.318 287.665 146.319 287.665 167.283C287.665 168.447 287.727 169.598 287.826 170.75C289.573 151.408 305.842 136.24 325.655 136.24Z" fill="#FFA100"/>
<path d="M325.655 130.073C346.186 130.073 362.876 146.765 362.876 167.27C362.876 187.776 346.174 204.467 325.655 204.467C305.136 204.467 288.433 187.776 288.433 167.27C288.433 146.765 305.136 130.073 325.655 130.073ZM325.655 122C300.626 122 280.342 142.27 280.342 167.283C280.342 192.295 300.626 212.565 325.655 212.565C350.684 212.565 370.967 192.295 370.967 167.283C370.967 142.27 350.671 122 325.655 122Z" fill="#FFE450"/>
<path d="M325.655 130.073V122C300.626 122 280.342 142.27 280.342 167.283H288.421C288.421 146.765 305.124 130.086 325.642 130.086L325.655 130.073Z" fill="#FAF582"/>
<g style="mix-blend-mode:lighten" opacity="0.2">
<path d="M325.655 122C300.626 122 280.342 142.27 280.342 167.282C280.342 173.486 281.594 179.405 283.861 184.791C287.058 185.547 290.391 185.955 293.823 185.955C317.762 185.955 337.178 166.564 337.178 142.629C337.178 135.348 335.369 128.5 332.197 122.47C330.053 122.161 327.873 121.987 325.655 121.987V122Z" fill="white"/>
</g>
</g>
<rect x="43.5" y="122.5" width="479" height="431" stroke="black"/>
<g clip-path="url(#clip1_2905_573)">
<path d="M94.2985 118.354C94.2985 108.334 86.5321 100.134 76.7001 99.4454C76.4936 89.1507 68.0938 80.8818 57.7661 80.8818C47.4384 80.8818 39.6032 88.6132 38.8733 98.4118C37.992 98.1775 37.0694 98.0397 36.1193 98.0397C32.1948 98.0397 28.7798 100.19 26.9621 103.359C24.3458 101.898 21.3301 101.058 18.1216 101.058C8.11066 101.058 0 109.175 0 119.194C0 129.213 8.11066 137.331 18.1216 137.331H76.7139V137.275C86.5459 136.573 94.2985 128.373 94.2985 118.367V118.354Z" fill="#D0F0FC"/>
<path d="M149.958 60.4163C149.958 55.5515 146.185 51.5686 141.407 51.2241C141.31 46.2214 137.22 42.1973 132.208 42.1973C127.196 42.1973 123.381 45.9458 123.023 50.7142C122.596 50.6039 122.156 50.535 121.688 50.535C119.787 50.535 118.121 51.5824 117.24 53.1259C115.973 52.4093 114.499 52.0096 112.943 52.0096C108.083 52.0096 104.144 55.9511 104.144 60.8297C104.144 65.7084 108.083 69.6361 112.943 69.6361H141.42V69.6085C146.199 69.264 149.958 65.2811 149.958 60.4163Z" fill="#D0F0FC"/>
<path d="M45.8685 164.094C42.8529 164.094 40.4155 166.533 40.4155 169.551C40.4155 172.569 42.8529 175.009 45.8685 175.009C48.8842 175.009 51.3215 172.569 51.3215 169.551C51.3215 166.533 48.8842 164.094 45.8685 164.094ZM48.1957 171.88C47.5898 172.473 46.7774 172.845 45.8685 172.845C44.9597 172.845 44.1335 172.473 43.5414 171.88C42.9492 171.274 42.5775 170.461 42.5775 169.551C42.5775 168.642 42.9492 167.815 43.5414 167.222C44.1473 166.63 44.9597 166.257 45.8685 166.257C46.7774 166.257 47.6036 166.63 48.1957 167.222C48.7878 167.829 49.1596 168.642 49.1596 169.551C49.1596 170.461 48.7878 171.288 48.1957 171.88Z" fill="#F47653"/>
<path d="M85.816 39C83.2547 39 81.1892 41.081 81.1892 43.6306C81.1892 46.1939 83.2685 48.2611 85.816 48.2611C88.3773 48.2611 90.4428 46.1801 90.4428 43.6306C90.4428 41.0672 88.3635 39 85.816 39ZM87.7989 45.6151C87.2894 46.125 86.5871 46.442 85.816 46.442C85.0449 46.442 84.3426 46.125 83.8331 45.6151C83.3236 45.1052 83.0069 44.4023 83.0069 43.6306C83.0069 42.8588 83.3236 42.1559 83.8331 41.646C84.3426 41.1361 85.0449 40.8191 85.816 40.8191C86.5871 40.8191 87.2894 41.1361 87.7989 41.646C88.3084 42.1559 88.6251 42.8588 88.6251 43.6306C88.6251 44.4023 88.3084 45.1052 87.7989 45.6151Z" fill="#6B9466"/>
<path d="M165.491 53.3466L164.182 53.2364C163.48 53.1812 162.847 52.5473 162.792 51.8444L162.682 50.5352C162.626 49.8323 162.062 49.2397 161.442 49.2397C160.823 49.2397 160.258 49.8186 160.203 50.5352L160.093 51.8444C160.038 52.5473 159.404 53.1812 158.702 53.2364L157.394 53.3466C156.678 53.4017 156.099 53.9668 156.099 54.5869C156.099 55.2071 156.678 55.7721 157.394 55.8273L158.702 55.9375C159.404 55.9926 160.038 56.6266 160.093 57.3294L160.203 58.6387C160.258 59.3553 160.823 59.9341 161.442 59.9341C162.062 59.9341 162.626 59.3553 162.682 58.6387L162.792 57.3294C162.847 56.6266 163.48 55.9926 164.182 55.9375L165.491 55.8273C166.193 55.7721 166.785 55.2071 166.785 54.5869C166.785 53.9668 166.207 53.4017 165.491 53.3466Z" fill="#6B9466"/>
<path d="M75.2956 167.112L74.0976 167.016C73.4504 166.96 72.8583 166.382 72.8032 165.72L72.7068 164.521C72.6518 163.86 72.1423 163.336 71.5639 163.336C70.9856 163.336 70.4761 163.873 70.421 164.521L70.3246 165.72C70.2695 166.382 69.6912 166.96 69.0302 167.016L67.8322 167.112C67.1712 167.167 66.6479 167.677 66.6479 168.256C66.6479 168.835 67.185 169.345 67.8322 169.4L69.0302 169.496C69.6912 169.551 70.2695 170.13 70.3246 170.792L70.421 171.991C70.4761 172.652 70.9856 173.176 71.5639 173.176C72.1423 173.176 72.6518 172.638 72.7068 171.991L72.8032 170.792C72.8583 170.13 73.4367 169.551 74.0976 169.496L75.2956 169.4C75.9566 169.345 76.4799 168.835 76.4799 168.256C76.4799 167.677 75.9428 167.167 75.2956 167.112Z" fill="#41C9E0"/>
<path d="M49.2561 221.177L48.306 221.094C47.7827 221.053 47.3283 220.584 47.287 220.074L47.2043 219.123C47.163 218.6 46.7499 218.172 46.2955 218.172C45.8411 218.172 45.428 218.6 45.3867 219.123L45.3041 220.074C45.2627 220.598 44.7946 221.053 44.2851 221.094L43.3349 221.177C42.8116 221.218 42.3848 221.632 42.3848 222.086C42.3848 222.541 42.8116 222.955 43.3349 222.996L44.2851 223.079C44.8083 223.12 45.2627 223.588 45.3041 224.098L45.3867 225.049C45.428 225.573 45.8411 226 46.2955 226C46.7499 226 47.163 225.573 47.2043 225.049L47.287 224.098C47.3283 223.575 47.7965 223.12 48.306 223.079L49.2561 222.996C49.7794 222.955 50.2063 222.541 50.2063 222.086C50.2063 221.632 49.7794 221.218 49.2561 221.177Z" fill="#7E69CC"/>
</g>
<path d="M544 81.4908C544 69.5968 534.708 59.8746 522.919 59.0424C522.673 46.8237 512.603 37 500.22 37C487.838 37 478.464 46.1742 477.584 57.8043C476.54 57.5201 475.435 57.3578 474.288 57.3578C469.581 57.3578 465.487 59.8949 463.318 63.6701C460.186 61.9246 456.564 60.93 452.716 60.93C440.722 60.93 431 70.571 431 82.465C431 94.359 440.722 104 452.716 104H522.919V103.939C534.687 103.107 543.98 93.3847 543.98 81.4908H544Z" fill="#D0F0FC"/>
<path d="M549 147C543.486 147 539 151.69 539 157.5C539 163.29 543.466 168 549 168C554.514 168 559 163.31 559 157.5C559 151.71 554.534 147 549 147ZM553.289 161.982C552.182 163.144 550.68 163.85 549 163.85C547.32 163.85 545.818 163.144 544.711 161.982C543.605 160.82 542.933 159.243 542.933 157.479C542.933 155.715 543.605 154.138 544.711 152.976C545.818 151.814 547.32 151.109 549 151.109C550.68 151.109 552.182 151.814 553.289 152.976C554.395 154.138 555.067 155.715 555.067 157.479C555.067 159.243 554.395 160.82 553.289 161.982Z" fill="#41C9E0"/>
<path d="M542 132C542 125.922 537.302 121.021 531.5 121C525.698 121 521.02 125.922 521 132C521 138.078 525.698 142.979 531.5 143C537.302 143 541.98 138.078 542 132ZM535.997 136.711C534.833 137.91 533.267 138.667 531.5 138.667C529.733 138.667 528.167 137.931 527.003 136.711C525.859 135.491 525.136 133.851 525.136 132C525.136 130.149 525.838 128.509 527.003 127.289C528.167 126.09 529.733 125.333 531.5 125.333C533.267 125.333 534.833 126.069 535.997 127.289C537.141 128.509 537.864 130.149 537.864 132C537.864 133.851 537.162 135.491 535.997 136.711Z" fill="#79C8EC"/>
<path d="M474.5 0C468.698 0 464 4.6979 464 10.5C464 16.3021 468.698 21 474.5 21C480.302 21 485 16.3021 485 10.5C485 4.6979 480.302 0.0200765 474.5 0ZM478.997 14.9771C477.833 16.1214 476.267 16.8442 474.5 16.8442C472.733 16.8442 471.167 16.1415 470.003 14.9771C468.859 13.8126 468.136 12.2467 468.136 10.4799C468.136 8.71319 468.838 7.14723 470.003 5.98279C471.167 4.83843 472.733 4.11568 474.5 4.11568C476.267 4.11568 477.833 4.81836 478.997 5.98279C480.142 7.14723 480.864 8.71319 480.864 10.4799C480.864 12.2467 480.162 13.8126 478.997 14.9771Z" fill="#79C8EC"/>
<path d="M577.985 103.867L578.145 105.944C578.224 107.067 579.062 108 580 108C580.938 108 581.776 107.067 581.855 105.944L582.015 103.867C582.095 102.743 583.052 101.726 584.11 101.641L586.065 101.471C587.122 101.387 588 100.496 588 99.5C588 98.5037 587.122 97.6135 586.065 97.5287L584.11 97.3591C583.052 97.2743 582.095 96.2569 582.015 95.1334L581.855 93.0561C581.776 91.9327 580.938 91 580 91C579.062 91 578.224 91.9327 578.145 93.0561L577.985 95.1334C577.905 96.2569 576.948 97.2743 575.89 97.3591L573.935 97.5287C572.878 97.6135 572 98.5037 572 99.5C572 100.496 572.878 101.387 573.935 101.471L575.89 101.641C576.948 101.726 577.905 102.743 577.985 103.867Z" fill="#7E69CC"/>
<defs>
<clipPath id="clip0_2905_573">
<rect x="43" y="122" width="480" height="432" fill="white"/>
</clipPath>
<clipPath id="clip1_2905_573">
<rect width="303" height="187" fill="white" transform="translate(0 39)"/>
</clipPath>
</defs>
</svg>
